<?xml version="1.0" encoding="utf-8"?>
<!-- Svg Vector Icons : http://www.onlinewebfonts.com/icon -->
<!DOCTYPE svg PUBLIC "-//W3C//DTD SVG 1.1//EN" "http://www.w3.org/Graphics/SVG/1.1/DTD/svg11.dtd">
<svg version="1.1" xmlns="http://www.w3.org/2000/svg" xmlns:xlink="http://www.w3.org/1999/xlink" x="0px" y="0px" viewBox="0 0 1000 1000" enable-background="new 0 0 1000 1000" xml:space="preserve">
<metadata> Svg Vector Icons : http://www.onlinewebfonts.com/icon </metadata>
<g><g transform="translate(0.000000,512.000000) scale(0.100000,-0.100000)"><path d="M2043.6,4992.7c-310-76.5-553-329.1-620-639.2c-34.5-160.8-28.7-8362.4,5.7-8490.6c82.3-308.1,306.2-532,614.3-614.3c141.6-38.3,5771.4-38.3,5913,0c308.1,82.3,532,306.2,614.3,614.3c38.3,141.6,38.3,8373.9,0,8515.5c-82.3,308.1-306.2,532-614.3,614.3C7820.7,5029.1,2189,5029.1,2043.6,4992.7z M7971.9,4828.2c135.9-42.1,287-160.7,367.4-287c111-178,105.3,103.3,105.3-4422.3V-4028l-40.2-130.1c-34.5-112.9-57.4-147.3-168.4-258.3c-111-111-145.4-133.9-258.3-168.4c-130.1-40.2-137.8-40.2-2977.6-40.2c-2839.8,0-2847.4,0-2977.6,40.2c-112.9,34.5-147.3,57.4-258.3,168.4c-111,111-134,145.4-168.4,258.3l-40.2,130.1V120.7v4148.7l40.2,130.1c34.4,112.9,57.4,147.3,168.4,258.3c225.8,225.8-91.9,206.7,3228.2,206.7C7799.7,4866.4,7849.4,4866.4,7971.9,4828.2z"/><path d="M2125.9,4376.6c-147.3-78.5-143.5-310,3.8-398c195.2-114.8,428.6,118.6,313.8,313.8C2378.5,4399.5,2236.9,4437.8,2125.9,4376.6z M2301.9,4225.4c49.8-61.2-24.9-155-89.9-112.9c-67,42.1-44,141.6,32.5,141.6C2263.6,4254.1,2288.5,4240.7,2301.9,4225.4z"/><path d="M7639,4374.6c-149.3-91.8-147.4-306.2,1.9-396.1c107.1-61.2,248.8-23,313.8,84.2C8071.4,4261.7,7834.1,4495.2,7639,4374.6z M7813.1,4225.4c49.7-61.2-24.9-155-90-112.9c-67,42.1-44,141.6,32.5,141.6C7774.8,4254.1,7799.7,4240.7,7813.1,4225.4z"/><path d="M4755.2,3997.7c-468.8-114.8-826.7-560.7-826.7-1033.3c0-285.1,116.7-566.4,319.6-767.4c421-417.2,1086.9-417.2,1506,1.9c419.1,419.1,419.1,1085,1.9,1506C5497.6,3965.1,5103.4,4081.9,4755.2,3997.7z M5220.2,3842.7c329.2-86.1,583.7-342.5,669.8-673.6c124.4-476.5-179.9-977.8-669.8-1106.1c-480.3-124.4-981.7,179.9-1109.9,669.8C3940,3389.1,4563.8,4013,5220.2,3842.7z"/><path d="M4770.5,3599.6c-103.3-32.5-143.5-59.3-250.7-166.5c-111-111-134-145.4-168.4-258.3c-23-70.8-40.2-172.2-40.2-222c0-49.8,17.2-151.2,40.2-222c34.4-112.9,57.4-147.4,168.4-258.3c111-111,145.4-134,258.3-168.4c70.8-23,172.2-40.2,222-40.2c49.8,0,151.2,17.2,222,40.2c112.9,34.4,147.3,57.4,258.3,168.4c111,111,134,145.4,168.4,258.3c23,70.8,40.2,172.2,40.2,222c0,49.8-17.2,151.2-40.2,222c-34.4,112.9-57.4,147.3-168.4,258.3c-111,111-145.4,134-258.3,168.4C5061.3,3651.3,4931.2,3651.3,4770.5,3599.6z M5172.3,3458c200.9-59.3,363.6-285.1,363.6-505.2c0-287-248.8-535.8-535.8-535.8c-287,0-535.8,248.8-535.8,535.8c0,285.1,241.1,530.1,528.2,533.9C5034.5,3488.6,5114.9,3475.2,5172.3,3458z"/><path d="M4684.3,1096.6c-989.3-155-1750.9-886-1944.2-1865.8c-15.3-76.5-26.8-252.6-26.8-411.4c0-158.8,11.5-334.9,26.8-411.4c185.6-941.5,907-1662.9,1848.5-1848.5c174.1-34.5,648.7-34.5,822.9,0c832.4,164.6,1513.6,761.6,1768.2,1548.1c84.2,260.3,107.2,409.5,107.2,711.9c0,405.7-74.6,719.5-252.6,1054.4c-325.3,618.1-891.7,1046.7-1578.7,1196C5289.1,1106.2,4845.1,1121.5,4684.3,1096.6z M5432.6,916.8c851.5-183.7,1490.7-834.3,1676.3-1705c30.6-149.3,30.6-637.2,0-784.6c-191.3-887.9-828.6-1525.2-1716.5-1716.5c-147.4-30.6-635.3-30.6-784.6,0c-884.1,189.5-1527,832.4-1716.5,1716.5c-30.6,147.3-30.6,637.2,0,784.6c91.9,432.5,300.4,824.8,597,1119.4c302.3,304.3,729.1,528.2,1129,593.2c78.5,11.5,156.9,24.9,172.2,28.7C4856.6,970.3,5308.2,943.6,5432.6,916.8z"/><path d="M4669,704.4c-403.8-76.5-732.9-250.7-1018-535.8c-388.5-388.5-585.6-895.6-558.8-1435.2c45.9-863,623.8-1563.4,1467.7-1775.8c220.1-55.5,629.6-57.4,851.6-5.7c734.8,170.3,1285.9,721.4,1456.2,1456.2c51.7,222,49.8,631.5-5.7,851.5c-178,708-711.9,1243.8-1412.2,1418C5245,729.2,4868.1,742.6,4669,704.4z M5424.9,524.5c329.2-86.1,585.6-231.6,819-465c340.6-340.6,505.2-742.5,505.2-1240c0-497.5-164.6-899.4-507.1-1241.9c-342.5-342.5-744.4-507.1-1241.9-507.1c-375.1,0-669.8,84.2-958.7,275.6c-887.9,581.7-1064,1816-375.1,2617.8c135.9,158.8,306.2,298.5,478.4,394.2c139.7,78.4,426.7,178,583.6,202.8C4896.8,587.6,5256.5,568.5,5424.9,524.5z"/><path d="M4780-131.9c-51.7-9.6-166.5-51.6-252.6-93.8c-652.5-313.8-799.9-1190.3-285.1-1705c218.1-218.1,445.9-311.9,757.8-311.9c310,0,539.6,95.7,754,308.1c212.4,214.3,308.1,443.9,308.1,753.9c0,311.9-93.8,539.6-311.9,757.8C5497.6-170.2,5139.8-63,4780-131.9z M5220.2-290.7c489.9-128.2,794.1-629.6,669.8-1106.1c-86.1-331-340.6-587.5-669.8-673.6c-480.3-124.4-981.7,179.9-1109.9,669.7C3940-744.2,4563.8-120.4,5220.2-290.7z"/><path d="M2127.8-3739c-149.3-91.8-147.3-306.2,1.9-396.1c195.2-114.8,428.6,118.7,313.8,313.8C2378.5-3714.1,2231.1-3673.9,2127.8-3739z M2301.9-3888.3c49.8-61.2-24.9-155-89.9-112.9c-44,26.8-53.6,78.5-24.9,112.9C2217.7-3851.9,2271.3-3851.9,2301.9-3888.3z"/><path d="M7639-3739c-149.3-91.8-147.4-306.2,1.9-396.1c195.2-114.8,428.7,118.7,313.8,313.8C7889.6-3714.1,7742.3-3673.9,7639-3739z M7813.1-3888.3c49.7-61.2-24.9-155-90-112.9c-44,26.8-53.6,78.5-24.9,112.9C7728.9-3851.9,7782.5-3851.9,7813.1-3888.3z"/></g></g>
</svg>