<?xml version="1.0" encoding="utf-8"?>
<!-- Svg Vector Icons : http://www.onlinewebfonts.com/icon -->
<!DOCTYPE svg PUBLIC "-//W3C//DTD SVG 1.1//EN" "http://www.w3.org/Graphics/SVG/1.1/DTD/svg11.dtd">
<svg version="1.1" xmlns="http://www.w3.org/2000/svg" xmlns:xlink="http://www.w3.org/1999/xlink" x="0px" y="0px" viewBox="0 0 1000 1000" enable-background="new 0 0 1000 1000" xml:space="preserve">
<metadata> Svg Vector Icons : http://www.onlinewebfonts.com/icon </metadata>
<g><g><path d="M129.7,820.8c-14.9,12.9-23.6,31.7-23.6,51.5c0,37.5,30.5,68.1,68.1,68.1c23.1,0,44.3-11.6,56.9-30.7c79.9,52.6,172.8,80.4,269,80.4c93.1,0,183.6-26.3,262.1-76.1c12.9,16.6,32.5,26.3,53.7,26.3c37.5,0,68.1-30.5,68.1-68.1c0-17.1-6.6-33.6-18.1-46.2C945.9,736.2,990,620.6,990,500c0-115.7-41.1-227.8-115.8-316.1c6.3-10.6,9.7-22.6,9.7-35c0-37.5-30.5-68-68.1-68c-14.7,0-29.1,4.8-40.8,13.6C693.6,39.2,598.6,10,500,10c-101,0-197.8,30.5-280.4,88.3c-12.5-11.3-28.5-17.5-45.4-17.5c-37.6,0-68.1,30.5-68.1,68c0,15,5,29.6,14.2,41.5C49.1,277.5,10,387.3,10,500C10,618,52.5,731.7,129.7,820.8z M166.4,905.9c-12.5,0-22.6-10.1-22.6-22.6c0-12.5,10.1-22.6,22.6-22.6c12.5,0,22.6,10.1,22.6,22.6C189,895.8,178.9,905.9,166.4,905.9z M822.7,905.9c-12.5,0-22.6-10.1-22.6-22.6c0-12.5,10.1-22.6,22.6-22.6c12.5,0,22.6,10.1,22.6,22.6C845.3,895.8,835.2,905.9,822.7,905.9z M825.8,116.6c12.5,0,22.6,10.1,22.6,22.6c0,12.5-10.1,22.6-22.6,22.6c-12.5,0-22.6-10.1-22.6-22.6C803.2,126.8,813.4,116.6,825.8,116.6z M169.6,116.6c12.5,0,22.6,10.1,22.6,22.6c0,12.5-10.1,22.6-22.6,22.6c-12.5,0-22.6-10.1-22.6-22.6C147,126.8,157.1,116.6,169.6,116.6z M500,81c231.4,0,419,187.5,419,419c0,231.4-187.6,419-419,419C268.6,919,81,731.4,81,500C81,268.6,268.6,81,500,81z"/><path d="M108.8,506h15c3.8,0,6.9-3.4,6.9-7.7v-2.4v-33.6v-2.4c0-4.2-3.1-7.7-6.9-7.7h-15c-3.8,0-7,3.5-7,7.7v2.4v33.6v2.4C101.8,502.6,105,506,108.8,506z"/><path d="M478.3,131.1h2.4h33.6h2.4c4.3,0,7.7-3.1,7.7-6.9v-15.1c0-3.8-3.5-6.9-7.7-6.9h-2.4h-33.6h-2.4c-4.2,0-7.7,3.1-7.7,6.9v15.1C470.6,128,474.1,131.1,478.3,131.1z"/><path d="M516.8,868.8h-2.4h-33.6h-2.4c-4.2,0-7.7,3.2-7.7,7v15c0,3.8,3.5,6.9,7.7,6.9h2.4h33.6h2.4c4.3,0,7.7-3.1,7.7-6.9v-15C524.5,872,521.1,868.8,516.8,868.8z"/><path d="M216.8,257.3c2.7,2.7,7.4,2.5,10.4-0.5l25.5-25.5c0,0,0.1-0.1,0.1-0.1l1.6-1.6c3-3,3.2-7.7,0.6-10.4l-10.6-10.6c-2.7-2.7-7.4-2.5-10.4,0.5l-25.4,25.5l-1.8,1.7c-3,3-3.2,7.7-0.5,10.4L216.8,257.3z"/><path d="M778.4,742.7c-2.7-2.7-7.4-2.5-10.4,0.5l-25.5,25.5l-1.7,1.7c-3,3-3.2,7.7-0.5,10.4l10.7,10.6c2.7,2.7,7.4,2.5,10.4-0.5l25.4-25.5c0,0,0,0,0.1-0.1l1.7-1.7c3-3,3.2-7.7,0.5-10.4L778.4,742.7z"/><path d="M252.7,768.8C252.7,768.7,252.7,768.7,252.7,768.8l-25.5-25.6c-3-3-7.7-3.2-10.4-0.5l-10.6,10.6c-2.7,2.7-2.5,7.4,0.5,10.3l25.5,25.5l1.7,1.7c3,3,7.7,3.2,10.4,0.5l10.6-10.6c2.7-2.7,2.4-7.4-0.6-10.4L252.7,768.8z"/><path d="M742.5,231.3C742.5,231.3,742.5,231.3,742.5,231.3l25.5,25.5c3,3,7.7,3.2,10.4,0.5l10.6-10.7c2.7-2.7,2.5-7.3-0.5-10.3l-1.7-1.7c0,0,0,0,0-0.1l-25.5-25.5c-3-3-7.7-3.2-10.4-0.5l-10.7,10.6c-2.7,2.7-2.4,7.4,0.6,10.4L742.5,231.3z"/><path d="M875.5,506h15.1c3.8,0,6.9-3.4,6.9-7.7v-2.4v-33.6v-2.4c0-4.2-3.1-7.7-6.9-7.7h-15.1c-3.8,0-6.9,3.5-6.9,7.7v2.4v33.6v2.4C868.5,502.6,871.6,506,875.5,506z"/><path d="M500,845.3c190.7,0,345.3-154.6,345.3-345.3S690.7,154.7,500,154.7c-190.7,0-345.3,154.6-345.3,345.3S309.3,845.3,500,845.3z M500,318.3c100.2,0,181.7,81.5,181.7,181.6c0,100.2-81.5,181.7-181.7,181.7c-100.2,0-181.6-81.5-181.6-181.7C318.4,399.8,399.8,318.3,500,318.3z"/></g><g></g><g></g><g></g><g></g><g></g><g></g><g></g><g></g><g></g><g></g><g></g><g></g><g></g><g></g><g></g></g>
</svg>