<svg xmlns="http://www.w3.org/2000/svg"
     width="4.56944in" height="6.58333in"
     viewBox="0 0 329 474">
  <path id="Selection"
        fill="black" stroke="none" stroke-width="1"
        d="M 1.00,33.00
           C 1.00,33.00 3.00,35.00 3.00,35.00
             3.00,35.00 1.54,36.54 1.54,36.54
             1.54,36.54 1.00,59.00 1.00,59.00
             1.00,59.00 1.00,128.00 1.00,128.00
             1.00,128.00 1.00,311.00 1.00,311.00
             1.00,311.00 1.00,369.00 1.00,369.00
             1.00,369.00 0.00,402.00 0.00,402.00
             3.66,402.06 3.66,402.20 6.00,405.00
             6.00,405.00 8.00,406.00 8.00,406.00
             8.00,406.00 10.00,405.00 10.00,405.00
             10.00,405.00 12.00,406.00 12.00,406.00
             14.60,410.47 18.89,412.49 24.00,412.00
             24.00,412.00 25.00,415.00 25.00,415.00
             25.00,415.00 27.00,416.00 27.00,416.00
             27.00,416.00 29.00,415.00 29.00,415.00
             29.00,415.00 29.00,417.00 29.00,417.00
             29.00,417.00 31.00,416.00 31.00,416.00
             31.00,416.00 33.00,417.00 33.00,417.00
             35.24,420.83 36.62,421.41 41.00,421.00
             41.00,421.00 42.00,424.00 42.00,424.00
             42.00,424.00 44.00,425.00 44.00,425.00
             44.00,425.00 46.00,424.00 46.00,424.00
             46.00,424.00 46.00,426.00 46.00,426.00
             46.00,426.00 48.00,425.00 48.00,425.00
             48.00,425.00 50.00,426.00 50.00,426.00
             52.60,430.47 56.89,432.49 62.00,432.00
             62.00,432.00 63.00,435.00 63.00,435.00
             63.00,435.00 65.00,436.00 65.00,436.00
             65.00,436.00 67.00,435.00 67.00,435.00
             67.00,435.00 67.00,437.00 67.00,437.00
             67.00,437.00 69.00,436.00 69.00,436.00
             69.00,436.00 71.00,437.00 71.00,437.00
             73.24,440.83 74.62,441.41 79.00,441.00
             79.00,441.00 80.00,444.00 80.00,444.00
             80.00,444.00 82.00,445.00 82.00,445.00
             82.00,445.00 84.00,444.00 84.00,444.00
             84.00,444.00 84.00,446.00 84.00,446.00
             84.00,446.00 86.00,445.00 86.00,445.00
             86.00,445.00 88.00,446.00 88.00,446.00
             88.00,446.00 99.00,454.00 99.00,454.00
             99.00,454.00 101.00,455.00 101.00,455.00
             101.00,455.00 103.00,454.00 103.00,454.00
             103.00,454.00 103.00,456.00 103.00,456.00
             103.00,456.00 105.00,455.00 105.00,455.00
             105.00,455.00 107.00,456.00 107.00,456.00
             111.50,463.74 116.85,459.47 118.00,464.00
             118.00,464.00 120.00,465.00 120.00,465.00
             120.00,465.00 122.00,464.00 122.00,464.00
             122.00,464.00 122.00,466.00 122.00,466.00
             122.00,466.00 124.00,465.00 124.00,465.00
             124.00,465.00 126.00,466.00 126.00,466.00
             126.00,466.00 137.00,474.00 137.00,474.00
             142.46,473.50 146.81,475.36 150.00,470.00
             150.00,470.00 154.00,470.00 154.00,470.00
             154.00,470.00 155.00,467.00 155.00,467.00
             158.70,467.27 159.06,467.20 161.00,464.00
             161.00,464.00 165.00,464.00 165.00,464.00
             165.00,464.00 166.00,461.00 166.00,461.00
             169.70,461.27 170.06,461.20 172.00,458.00
             172.00,458.00 174.00,457.00 174.00,457.00
             174.00,457.00 176.00,458.00 176.00,458.00
             176.00,458.00 178.00,457.00 178.00,457.00
             178.00,457.00 179.00,454.00 179.00,454.00
             182.70,454.27 183.06,454.20 185.00,451.00
             185.00,451.00 189.00,451.00 189.00,451.00
             189.00,451.00 190.00,448.00 190.00,448.00
             190.00,448.00 193.00,449.00 193.00,449.00
             193.00,449.00 194.00,446.00 194.00,446.00
             194.00,446.00 197.00,447.00 197.00,447.00
             197.00,447.00 198.00,444.00 198.00,444.00
             198.00,444.00 200.00,445.00 200.00,445.00
             200.00,445.00 201.00,442.00 201.00,442.00
             201.00,442.00 204.00,443.00 204.00,443.00
             204.00,443.00 205.00,440.00 205.00,440.00
             205.00,440.00 208.00,441.00 208.00,441.00
             208.00,441.00 209.00,438.00 209.00,438.00
             209.00,438.00 211.00,439.00 211.00,439.00
             211.00,439.00 220.00,432.00 220.00,432.00
             220.00,432.00 222.00,433.00 222.00,433.00
             222.00,433.00 231.00,426.00 231.00,426.00
             231.00,426.00 233.00,427.00 233.00,427.00
             233.00,427.00 234.00,424.00 234.00,424.00
             238.38,424.41 239.76,423.83 242.00,420.00
             242.00,420.00 244.00,421.00 244.00,421.00
             244.00,421.00 253.00,414.00 253.00,414.00
             253.00,414.00 255.00,415.00 255.00,415.00
             255.00,415.00 264.00,408.00 264.00,408.00
             264.00,408.00 266.00,409.00 266.00,409.00
             266.00,409.00 267.00,406.00 267.00,406.00
             271.38,406.41 272.76,405.83 275.00,402.00
             275.00,402.00 277.00,403.00 277.00,403.00
             279.36,400.38 279.45,400.09 283.00,400.00
             283.00,400.00 284.00,397.00 284.00,397.00
             284.00,397.00 288.00,397.00 288.00,397.00
             290.36,394.38 290.45,394.09 294.00,394.00
             294.00,394.00 295.00,391.00 295.00,391.00
             295.00,391.00 297.00,390.00 297.00,390.00
             297.00,390.00 299.00,391.00 299.00,391.00
             299.00,391.00 301.00,390.00 301.00,390.00
             301.00,390.00 302.00,387.00 302.00,387.00
             302.00,387.00 305.00,388.00 305.00,388.00
             305.00,388.00 306.00,385.00 306.00,385.00
             306.00,385.00 309.00,386.00 309.00,386.00
             309.00,386.00 310.00,383.00 310.00,383.00
             310.00,383.00 312.00,384.00 312.00,384.00
             312.00,384.00 313.00,381.00 313.00,381.00
             317.38,381.41 318.76,380.83 321.00,377.00
             321.00,377.00 323.00,378.00 323.00,378.00
             323.00,378.00 324.00,375.00 324.00,375.00
             324.00,375.00 327.00,376.00 327.00,376.00
             327.00,376.00 329.00,374.00 329.00,374.00
             329.00,374.00 329.00,30.00 329.00,30.00
             329.00,27.64 329.20,24.21 327.98,22.14
             325.37,17.71 314.70,17.69 309.85,16.97
             309.85,16.97 251.00,9.01 251.00,9.01
             251.00,9.01 202.17,2.55 202.17,2.55
             202.17,2.55 181.00,0.00 181.00,0.00
             167.16,-0.16 162.28,1.72 149.27,4.16
             149.27,4.16 102.01,13.56 102.01,13.56
             102.01,13.56 42.17,24.99 42.17,24.99
             42.17,24.99 1.00,33.00 1.00,33.00 Z
           M 173.00,1.00
           C 173.00,1.00 173.00,2.00 173.00,2.00
             173.00,2.00 172.00,1.00 172.00,1.00
             172.00,1.00 173.00,1.00 173.00,1.00 Z
           M 181.00,1.00
           C 181.00,1.00 174.00,2.00 174.00,2.00
             174.00,2.00 181.00,1.00 181.00,1.00 Z
           M 183.00,1.00
           C 183.00,1.00 183.00,2.00 183.00,2.00
             183.00,2.00 182.00,1.00 182.00,1.00
             182.00,1.00 183.00,1.00 183.00,1.00 Z
           M 167.00,2.00
           C 167.00,2.00 167.00,3.00 167.00,3.00
             167.00,3.00 166.00,2.00 166.00,2.00
             166.00,2.00 167.00,2.00 167.00,2.00 Z
           M 169.00,2.00
           C 169.00,2.00 169.00,3.00 169.00,3.00
             169.00,3.00 168.00,2.00 168.00,2.00
             168.00,2.00 169.00,2.00 169.00,2.00 Z
           M 171.00,2.00
           C 171.00,2.00 171.00,3.00 171.00,3.00
             171.00,3.00 170.00,2.00 170.00,2.00
             170.00,2.00 171.00,2.00 171.00,2.00 Z
           M 185.00,2.00
           C 185.00,2.00 185.00,3.00 185.00,3.00
             185.00,3.00 184.00,2.00 184.00,2.00
             184.00,2.00 185.00,2.00 185.00,2.00 Z
           M 191.00,2.00
           C 191.00,2.00 191.00,3.00 191.00,3.00
             191.00,3.00 190.00,2.00 190.00,2.00
             190.00,2.00 191.00,2.00 191.00,2.00 Z
           M 162.00,3.00
           C 162.00,3.00 162.00,4.00 162.00,4.00
             162.00,4.00 161.00,3.00 161.00,3.00
             161.00,3.00 162.00,3.00 162.00,3.00 Z
           M 166.00,3.00
           C 166.00,3.00 166.00,4.00 166.00,4.00
             166.00,4.00 165.00,3.00 165.00,3.00
             165.00,3.00 166.00,3.00 166.00,3.00 Z
           M 193.00,3.00
           C 193.00,3.00 193.00,4.00 193.00,4.00
             193.00,4.00 192.00,3.00 192.00,3.00
             192.00,3.00 193.00,3.00 193.00,3.00 Z
           M 199.00,3.00
           C 199.00,3.00 199.00,4.00 199.00,4.00
             199.00,4.00 198.00,3.00 198.00,3.00
             198.00,3.00 199.00,3.00 199.00,3.00 Z
           M 157.00,4.00
           C 157.00,4.00 157.00,5.00 157.00,5.00
             157.00,5.00 156.00,4.00 156.00,4.00
             156.00,4.00 157.00,4.00 157.00,4.00 Z
           M 161.00,4.00
           C 161.00,4.00 161.00,5.00 161.00,5.00
             161.00,5.00 160.00,4.00 160.00,4.00
             160.00,4.00 161.00,4.00 161.00,4.00 Z
           M 200.00,4.00
           C 200.00,4.00 200.00,5.00 200.00,5.00
             200.00,5.00 199.00,4.00 199.00,4.00
             199.00,4.00 200.00,4.00 200.00,4.00 Z
           M 203.00,4.00
           C 203.00,4.00 203.00,5.00 203.00,5.00
             203.00,5.00 202.00,4.00 202.00,4.00
             202.00,4.00 203.00,4.00 203.00,4.00 Z
           M 152.00,5.00
           C 152.00,5.00 152.00,6.00 152.00,6.00
             152.00,6.00 151.00,5.00 151.00,5.00
             151.00,5.00 152.00,5.00 152.00,5.00 Z
           M 156.00,5.00
           C 156.00,5.00 156.00,6.00 156.00,6.00
             156.00,6.00 155.00,5.00 155.00,5.00
             155.00,5.00 156.00,5.00 156.00,5.00 Z
           M 207.00,5.00
           C 207.00,5.00 207.00,6.00 207.00,6.00
             207.00,6.00 206.00,5.00 206.00,5.00
             206.00,5.00 207.00,5.00 207.00,5.00 Z
           M 214.00,5.00
           C 214.00,5.00 214.00,6.00 214.00,6.00
             214.00,6.00 213.00,5.00 213.00,5.00
             213.00,5.00 214.00,5.00 214.00,5.00 Z
           M 147.00,6.00
           C 147.00,6.00 147.00,7.00 147.00,7.00
             147.00,7.00 146.00,6.00 146.00,6.00
             146.00,6.00 147.00,6.00 147.00,6.00 Z
           M 151.00,6.00
           C 151.00,6.00 151.00,7.00 151.00,7.00
             151.00,7.00 150.00,6.00 150.00,6.00
             150.00,6.00 151.00,6.00 151.00,6.00 Z
           M 215.00,6.00
           C 215.00,6.00 215.00,7.00 215.00,7.00
             215.00,7.00 214.00,6.00 214.00,6.00
             214.00,6.00 215.00,6.00 215.00,6.00 Z
           M 221.00,6.00
           C 221.00,6.00 221.00,7.00 221.00,7.00
             221.00,7.00 220.00,6.00 220.00,6.00
             220.00,6.00 221.00,6.00 221.00,6.00 Z
           M 142.00,7.00
           C 142.00,7.00 142.00,8.00 142.00,8.00
             142.00,8.00 141.00,7.00 141.00,7.00
             141.00,7.00 142.00,7.00 142.00,7.00 Z
           M 145.00,7.00
           C 145.00,7.00 145.00,8.00 145.00,8.00
             145.00,8.00 144.00,7.00 144.00,7.00
             144.00,7.00 145.00,7.00 145.00,7.00 Z
           M 223.00,7.00
           C 223.00,7.00 223.00,8.00 223.00,8.00
             223.00,8.00 222.00,7.00 222.00,7.00
             222.00,7.00 223.00,7.00 223.00,7.00 Z
           M 228.00,7.00
           C 228.00,7.00 228.00,8.00 228.00,8.00
             228.00,8.00 227.00,7.00 227.00,7.00
             227.00,7.00 228.00,7.00 228.00,7.00 Z
           M 136.00,8.00
           C 136.00,8.00 136.00,9.00 136.00,9.00
             136.00,9.00 135.00,8.00 135.00,8.00
             135.00,8.00 136.00,8.00 136.00,8.00 Z
           M 138.00,8.00
           C 138.00,8.00 138.00,9.00 138.00,9.00
             138.00,9.00 137.00,8.00 137.00,8.00
             137.00,8.00 138.00,8.00 138.00,8.00 Z
           M 140.00,8.00
           C 140.00,8.00 140.00,9.00 140.00,9.00
             140.00,9.00 139.00,8.00 139.00,8.00
             139.00,8.00 140.00,8.00 140.00,8.00 Z
           M 230.00,8.00
           C 230.00,8.00 230.00,9.00 230.00,9.00
             230.00,9.00 229.00,8.00 229.00,8.00
             229.00,8.00 230.00,8.00 230.00,8.00 Z
           M 236.00,8.00
           C 236.00,8.00 236.00,9.00 236.00,9.00
             236.00,9.00 235.00,8.00 235.00,8.00
             235.00,8.00 236.00,8.00 236.00,8.00 Z
           M 131.00,9.00
           C 131.00,9.00 131.00,10.00 131.00,10.00
             131.00,10.00 130.00,9.00 130.00,9.00
             130.00,9.00 131.00,9.00 131.00,9.00 Z
           M 135.00,9.00
           C 135.00,9.00 135.00,10.00 135.00,10.00
             135.00,10.00 134.00,9.00 134.00,9.00
             134.00,9.00 135.00,9.00 135.00,9.00 Z
           M 238.00,9.00
           C 238.00,9.00 238.00,10.00 238.00,10.00
             238.00,10.00 237.00,9.00 237.00,9.00
             237.00,9.00 238.00,9.00 238.00,9.00 Z
           M 243.00,9.00
           C 243.00,9.00 243.00,10.00 243.00,10.00
             243.00,10.00 242.00,9.00 242.00,9.00
             242.00,9.00 243.00,9.00 243.00,9.00 Z
           M 126.00,10.00
           C 126.00,10.00 126.00,11.00 126.00,11.00
             126.00,11.00 125.00,10.00 125.00,10.00
             125.00,10.00 126.00,10.00 126.00,10.00 Z
           M 130.00,10.00
           C 130.00,10.00 130.00,11.00 130.00,11.00
             130.00,11.00 129.00,10.00 129.00,10.00
             129.00,10.00 130.00,10.00 130.00,10.00 Z
           M 245.00,10.00
           C 245.00,10.00 245.00,11.00 245.00,11.00
             245.00,11.00 244.00,10.00 244.00,10.00
             244.00,10.00 245.00,10.00 245.00,10.00 Z
           M 250.00,10.00
           C 250.00,10.00 250.00,11.00 250.00,11.00
             250.00,11.00 249.00,10.00 249.00,10.00
             249.00,10.00 250.00,10.00 250.00,10.00 Z
           M 121.00,11.00
           C 121.00,11.00 121.00,12.00 121.00,12.00
             121.00,12.00 120.00,11.00 120.00,11.00
             120.00,11.00 121.00,11.00 121.00,11.00 Z
           M 125.00,11.00
           C 125.00,11.00 125.00,12.00 125.00,12.00
             125.00,12.00 124.00,11.00 124.00,11.00
             124.00,11.00 125.00,11.00 125.00,11.00 Z
           M 252.00,11.00
           C 252.00,11.00 252.00,12.00 252.00,12.00
             252.00,12.00 251.00,11.00 251.00,11.00
             251.00,11.00 252.00,11.00 252.00,11.00 Z
           M 116.00,12.00
           C 116.00,12.00 116.00,13.00 116.00,13.00
             116.00,13.00 115.00,12.00 115.00,12.00
             115.00,12.00 116.00,12.00 116.00,12.00 Z
           M 119.00,12.00
           C 119.00,12.00 119.00,13.00 119.00,13.00
             119.00,13.00 118.00,12.00 118.00,12.00
             118.00,12.00 119.00,12.00 119.00,12.00 Z
           M 260.00,12.00
           C 260.00,12.00 260.00,13.00 260.00,13.00
             260.00,13.00 259.00,12.00 259.00,12.00
             259.00,12.00 260.00,12.00 260.00,12.00 Z
           M 266.00,12.00
           C 266.00,12.00 266.00,13.00 266.00,13.00
             266.00,13.00 265.00,12.00 265.00,12.00
             265.00,12.00 266.00,12.00 266.00,12.00 Z
           M 111.00,13.00
           C 111.00,13.00 111.00,14.00 111.00,14.00
             111.00,14.00 110.00,13.00 110.00,13.00
             110.00,13.00 111.00,13.00 111.00,13.00 Z
           M 114.00,13.00
           C 114.00,13.00 114.00,14.00 114.00,14.00
             114.00,14.00 113.00,13.00 113.00,13.00
             113.00,13.00 114.00,13.00 114.00,13.00 Z
           M 267.00,13.00
           C 267.00,13.00 267.00,14.00 267.00,14.00
             267.00,14.00 266.00,13.00 266.00,13.00
             266.00,13.00 267.00,13.00 267.00,13.00 Z
           M 273.00,13.00
           C 273.00,13.00 273.00,14.00 273.00,14.00
             273.00,14.00 272.00,13.00 272.00,13.00
             272.00,13.00 273.00,13.00 273.00,13.00 Z
           M 105.00,14.00
           C 105.00,14.00 105.00,15.00 105.00,15.00
             105.00,15.00 104.00,14.00 104.00,14.00
             104.00,14.00 105.00,14.00 105.00,14.00 Z
           M 107.00,14.00
           C 107.00,14.00 107.00,15.00 107.00,15.00
             107.00,15.00 106.00,14.00 106.00,14.00
             106.00,14.00 107.00,14.00 107.00,14.00 Z
           M 109.00,14.00
           C 109.00,14.00 109.00,15.00 109.00,15.00
             109.00,15.00 108.00,14.00 108.00,14.00
             108.00,14.00 109.00,14.00 109.00,14.00 Z
           M 274.00,14.00
           C 274.00,14.00 274.00,15.00 274.00,15.00
             274.00,15.00 273.00,14.00 273.00,14.00
             273.00,14.00 274.00,14.00 274.00,14.00 Z
           M 281.00,14.00
           C 281.00,14.00 281.00,15.00 281.00,15.00
             281.00,15.00 280.00,14.00 280.00,14.00
             280.00,14.00 281.00,14.00 281.00,14.00 Z
           M 100.00,15.00
           C 100.00,15.00 100.00,16.00 100.00,16.00
             100.00,16.00 99.00,15.00 99.00,15.00
             99.00,15.00 100.00,15.00 100.00,15.00 Z
           M 104.00,15.00
           C 104.00,15.00 104.00,16.00 104.00,16.00
             104.00,16.00 103.00,15.00 103.00,15.00
             103.00,15.00 104.00,15.00 104.00,15.00 Z
           M 282.00,15.00
           C 282.00,15.00 282.00,16.00 282.00,16.00
             282.00,16.00 281.00,15.00 281.00,15.00
             281.00,15.00 282.00,15.00 282.00,15.00 Z
           M 288.00,15.00
           C 288.00,15.00 288.00,16.00 288.00,16.00
             288.00,16.00 287.00,15.00 287.00,15.00
             287.00,15.00 288.00,15.00 288.00,15.00 Z
           M 95.00,16.00
           C 95.00,16.00 95.00,17.00 95.00,17.00
             95.00,17.00 94.00,16.00 94.00,16.00
             94.00,16.00 95.00,16.00 95.00,16.00 Z
           M 99.00,16.00
           C 99.00,16.00 99.00,17.00 99.00,17.00
             99.00,17.00 98.00,16.00 98.00,16.00
             98.00,16.00 99.00,16.00 99.00,16.00 Z
           M 290.00,16.00
           C 290.00,16.00 290.00,17.00 290.00,17.00
             290.00,17.00 289.00,16.00 289.00,16.00
             289.00,16.00 290.00,16.00 290.00,16.00 Z
           M 295.00,16.00
           C 295.00,16.00 295.00,17.00 295.00,17.00
             295.00,17.00 294.00,16.00 294.00,16.00
             294.00,16.00 295.00,16.00 295.00,16.00 Z
           M 90.00,17.00
           C 90.00,17.00 90.00,18.00 90.00,18.00
             90.00,18.00 89.00,17.00 89.00,17.00
             89.00,17.00 90.00,17.00 90.00,17.00 Z
           M 94.00,17.00
           C 94.00,17.00 94.00,18.00 94.00,18.00
             94.00,18.00 93.00,17.00 93.00,17.00
             93.00,17.00 94.00,17.00 94.00,17.00 Z
           M 303.00,17.00
           C 303.00,17.00 303.00,18.00 303.00,18.00
             303.00,18.00 302.00,17.00 302.00,17.00
             302.00,17.00 303.00,17.00 303.00,17.00 Z
           M 85.00,18.00
           C 85.00,18.00 85.00,19.00 85.00,19.00
             85.00,19.00 84.00,18.00 84.00,18.00
             84.00,18.00 85.00,18.00 85.00,18.00 Z
           M 88.00,18.00
           C 88.00,18.00 88.00,19.00 88.00,19.00
             88.00,19.00 87.00,18.00 87.00,18.00
             87.00,18.00 88.00,18.00 88.00,18.00 Z
           M 305.00,18.00
           C 305.00,18.00 305.00,19.00 305.00,19.00
             305.00,19.00 304.00,18.00 304.00,18.00
             304.00,18.00 305.00,18.00 305.00,18.00 Z
           M 310.00,18.00
           C 310.00,18.00 310.00,19.00 310.00,19.00
             310.00,19.00 309.00,18.00 309.00,18.00
             309.00,18.00 310.00,18.00 310.00,18.00 Z
           M 80.00,19.00
           C 80.00,19.00 80.00,20.00 80.00,20.00
             80.00,20.00 79.00,19.00 79.00,19.00
             79.00,19.00 80.00,19.00 80.00,19.00 Z
           M 83.00,19.00
           C 83.00,19.00 83.00,20.00 83.00,20.00
             83.00,20.00 82.00,19.00 82.00,19.00
             82.00,19.00 83.00,19.00 83.00,19.00 Z
           M 312.00,19.00
           C 312.00,19.00 312.00,20.00 312.00,20.00
             312.00,20.00 311.00,19.00 311.00,19.00
             311.00,19.00 312.00,19.00 312.00,19.00 Z
           M 318.00,19.00
           C 318.00,19.00 318.00,20.00 318.00,20.00
             318.00,20.00 317.00,19.00 317.00,19.00
             317.00,19.00 318.00,19.00 318.00,19.00 Z
           M 74.00,20.00
           C 74.00,20.00 74.00,21.00 74.00,21.00
             74.00,21.00 73.00,20.00 73.00,20.00
             73.00,20.00 74.00,20.00 74.00,20.00 Z
           M 76.00,20.00
           C 76.00,20.00 76.00,21.00 76.00,21.00
             76.00,21.00 75.00,20.00 75.00,20.00
             75.00,20.00 76.00,20.00 76.00,20.00 Z
           M 78.00,20.00
           C 78.00,20.00 78.00,21.00 78.00,21.00
             78.00,21.00 77.00,20.00 77.00,20.00
             77.00,20.00 78.00,20.00 78.00,20.00 Z
           M 319.00,20.00
           C 319.00,20.00 319.00,21.00 319.00,21.00
             319.00,21.00 318.00,20.00 318.00,20.00
             318.00,20.00 319.00,20.00 319.00,20.00 Z
           M 325.00,20.00
           C 325.00,20.00 320.00,21.00 320.00,21.00
             320.00,21.00 325.00,20.00 325.00,20.00 Z
           M 69.00,21.00
           C 69.00,21.00 69.00,22.00 69.00,22.00
             69.00,22.00 68.00,21.00 68.00,21.00
             68.00,21.00 69.00,21.00 69.00,21.00 Z
           M 73.00,21.00
           C 73.00,21.00 73.00,22.00 73.00,22.00
             73.00,22.00 72.00,21.00 72.00,21.00
             72.00,21.00 73.00,21.00 73.00,21.00 Z
           M 326.00,21.00
           C 326.00,21.00 326.00,22.00 326.00,22.00
             326.00,22.00 325.00,21.00 325.00,21.00
             325.00,21.00 326.00,21.00 326.00,21.00 Z
           M 64.00,22.00
           C 64.00,22.00 64.00,23.00 64.00,23.00
             64.00,23.00 63.00,22.00 63.00,22.00
             63.00,22.00 64.00,22.00 64.00,22.00 Z
           M 68.00,22.00
           C 68.00,22.00 68.00,23.00 68.00,23.00
             68.00,23.00 67.00,22.00 67.00,22.00
             67.00,22.00 68.00,22.00 68.00,22.00 Z
           M 327.00,22.00
           C 327.00,22.00 327.00,23.00 327.00,23.00
             327.00,23.00 326.00,22.00 326.00,22.00
             326.00,22.00 327.00,22.00 327.00,22.00 Z
           M 59.00,23.00
           C 59.00,23.00 59.00,24.00 59.00,24.00
             59.00,24.00 58.00,23.00 58.00,23.00
             58.00,23.00 59.00,23.00 59.00,23.00 Z
           M 61.00,23.00
           C 61.00,23.00 61.00,24.00 61.00,24.00
             61.00,24.00 60.00,23.00 60.00,23.00
             60.00,23.00 61.00,23.00 61.00,23.00 Z
           M 63.00,23.00
           C 63.00,23.00 63.00,24.00 63.00,24.00
             63.00,24.00 62.00,23.00 62.00,23.00
             62.00,23.00 63.00,23.00 63.00,23.00 Z
           M 328.00,23.00
           C 328.00,23.00 328.00,371.00 328.00,371.00
             328.00,371.00 327.00,347.00 327.00,347.00
             327.00,347.00 327.00,294.00 327.00,294.00
             327.00,294.00 327.00,112.00 327.00,112.00
             327.00,112.00 327.00,51.00 327.00,51.00
             327.00,51.00 328.00,23.00 328.00,23.00 Z
           M 54.00,24.00
           C 54.00,24.00 54.00,25.00 54.00,25.00
             54.00,25.00 53.00,24.00 53.00,24.00
             53.00,24.00 54.00,24.00 54.00,24.00 Z
           M 57.00,24.00
           C 57.00,24.00 57.00,25.00 57.00,25.00
             57.00,25.00 56.00,24.00 56.00,24.00
             56.00,24.00 57.00,24.00 57.00,24.00 Z
           M 52.00,25.00
           C 52.00,25.00 52.00,26.00 52.00,26.00
             52.00,26.00 51.00,25.00 51.00,25.00
             51.00,25.00 52.00,25.00 52.00,25.00 Z
           M 43.00,26.00
           C 43.00,26.00 43.00,27.00 43.00,27.00
             43.00,27.00 42.00,26.00 42.00,26.00
             42.00,26.00 43.00,26.00 43.00,26.00 Z
           M 47.00,26.00
           C 47.00,26.00 47.00,27.00 47.00,27.00
             47.00,27.00 46.00,26.00 46.00,26.00
             46.00,26.00 47.00,26.00 47.00,26.00 Z
           M 38.00,27.00
           C 38.00,27.00 38.00,28.00 38.00,28.00
             38.00,28.00 37.00,27.00 37.00,27.00
             37.00,27.00 38.00,27.00 38.00,27.00 Z
           M 42.00,27.00
           C 42.00,27.00 42.00,28.00 42.00,28.00
             42.00,28.00 41.00,27.00 41.00,27.00
             41.00,27.00 42.00,27.00 42.00,27.00 Z
           M 322.00,27.00
           C 322.00,27.00 322.00,361.00 322.00,361.00
             322.00,361.00 320.98,368.61 320.98,368.61
             320.98,368.61 309.00,376.25 309.00,376.25
             309.00,376.25 282.00,390.86 282.00,390.86
             282.00,390.86 194.00,438.86 194.00,438.86
             194.00,438.86 161.00,456.78 161.00,456.78
             161.00,456.78 144.00,465.00 144.00,465.00
             144.00,465.00 144.00,83.00 144.00,83.00
             144.00,83.00 142.40,74.28 142.40,74.28
             142.40,74.28 133.00,70.13 133.00,70.13
             133.00,70.13 115.00,65.37 115.00,65.37
             115.00,65.37 17.00,40.00 17.00,40.00
             21.11,38.49 24.82,40.11 29.00,41.00
             29.00,41.00 52.00,46.00 52.00,46.00
             52.00,46.00 112.00,58.65 112.00,58.65
             112.00,58.65 147.00,65.66 147.00,65.66
             147.00,65.66 163.00,62.42 163.00,62.42
             163.00,62.42 196.00,54.88 196.00,54.88
             196.00,54.88 282.00,35.58 282.00,35.58
             282.00,35.58 322.00,27.00 322.00,27.00 Z
           M 33.00,28.00
           C 33.00,28.00 33.00,29.00 33.00,29.00
             33.00,29.00 32.00,28.00 32.00,28.00
             32.00,28.00 33.00,28.00 33.00,28.00 Z
           M 35.00,28.00
           C 35.00,28.00 35.00,29.00 35.00,29.00
             35.00,29.00 34.00,28.00 34.00,28.00
             34.00,28.00 35.00,28.00 35.00,28.00 Z
           M 37.00,28.00
           C 37.00,28.00 37.00,29.00 37.00,29.00
             37.00,29.00 36.00,28.00 36.00,28.00
             36.00,28.00 37.00,28.00 37.00,28.00 Z
           M 28.00,29.00
           C 28.00,29.00 28.00,30.00 28.00,30.00
             28.00,30.00 27.00,29.00 27.00,29.00
             27.00,29.00 28.00,29.00 28.00,29.00 Z
           M 32.00,29.00
           C 32.00,29.00 32.00,30.00 32.00,30.00
             32.00,30.00 31.00,29.00 31.00,29.00
             31.00,29.00 32.00,29.00 32.00,29.00 Z
           M 23.00,30.00
           C 23.00,30.00 23.00,31.00 23.00,31.00
             23.00,31.00 22.00,30.00 22.00,30.00
             22.00,30.00 23.00,30.00 23.00,30.00 Z
           M 26.00,30.00
           C 26.00,30.00 26.00,31.00 26.00,31.00
             26.00,31.00 25.00,30.00 25.00,30.00
             25.00,30.00 26.00,30.00 26.00,30.00 Z
           M 21.00,31.00
           C 21.00,31.00 21.00,32.00 21.00,32.00
             21.00,32.00 20.00,31.00 20.00,31.00
             20.00,31.00 21.00,31.00 21.00,31.00 Z
           M 12.00,32.00
           C 12.00,32.00 12.00,33.00 12.00,33.00
             12.00,33.00 11.00,32.00 11.00,32.00
             11.00,32.00 12.00,32.00 12.00,32.00 Z
           M 14.00,32.00
           C 14.00,32.00 14.00,33.00 14.00,33.00
             14.00,33.00 13.00,32.00 13.00,32.00
             13.00,32.00 14.00,32.00 14.00,32.00 Z
           M 16.00,32.00
           C 16.00,32.00 16.00,33.00 16.00,33.00
             16.00,33.00 15.00,32.00 15.00,32.00
             15.00,32.00 16.00,32.00 16.00,32.00 Z
           M 11.00,33.00
           C 11.00,33.00 11.00,34.00 11.00,34.00
             11.00,34.00 10.00,33.00 10.00,33.00
             10.00,33.00 11.00,33.00 11.00,33.00 Z
           M 6.00,34.00
           C 6.00,34.00 6.00,35.00 6.00,35.00
             6.00,35.00 5.00,34.00 5.00,34.00
             5.00,34.00 6.00,34.00 6.00,34.00 Z
           M 311.00,36.87
           C 305.22,37.06 299.61,39.06 294.00,40.35
             294.00,40.35 265.00,47.12 265.00,47.12
             265.00,47.12 185.00,65.87 185.00,65.87
             177.30,67.74 158.24,70.18 153.65,76.11
             150.18,80.59 150.01,86.60 150.00,92.00
             150.00,92.00 150.00,437.00 150.00,437.00
             150.01,440.82 149.67,446.47 153.39,448.82
             156.94,451.06 160.86,448.56 164.00,446.86
             164.00,446.86 187.00,434.69 187.00,434.69
             187.00,434.69 286.00,381.42 286.00,381.42
             293.58,377.15 310.83,370.08 314.91,363.00
             317.14,359.13 316.99,355.28 317.00,351.00
             317.00,351.00 317.00,111.00 317.00,111.00
             317.00,111.00 317.00,48.00 317.00,48.00
             316.99,42.24 317.43,38.64 311.00,36.87 Z
           M 310.00,44.91
           C 316.07,46.13 313.84,53.48 310.79,54.83
             308.04,56.06 306.38,53.40 306.20,50.98
             305.96,47.57 307.23,46.26 310.00,44.91 Z
           M 160.00,80.74
           C 168.23,82.88 163.84,93.14 159.01,93.14
             153.76,93.14 152.29,83.14 160.00,80.74 Z
           M 274.00,94.00
           C 274.75,92.62 275.33,91.33 276.41,90.15
             279.83,86.42 284.15,87.07 285.57,92.04
             286.89,96.68 285.21,100.74 282.00,104.00
             296.25,123.94 295.76,154.02 291.00,177.00
             289.15,185.90 286.41,195.04 282.00,203.00
             290.80,208.28 283.33,226.66 274.00,218.00
             261.40,242.48 228.83,263.46 203.00,245.00
             200.80,253.86 193.98,255.83 191.02,250.85
             187.62,245.13 193.31,238.51 191.92,234.00
             191.16,231.53 186.62,225.96 183.37,213.00
             177.49,189.48 180.22,165.76 188.00,143.00
             189.02,140.02 192.05,133.61 191.98,131.00
             191.89,127.85 188.27,122.56 191.01,116.02
             193.52,110.01 199.01,108.16 203.00,114.00
             219.72,91.25 248.14,72.82 274.00,94.00 Z
           M 243.00,95.46
           C 206.51,103.59 189.34,149.42 188.04,183.00
             187.86,187.55 188.42,188.88 188.83,193.00
             191.01,214.83 199.24,239.55 225.00,241.48
             238.31,242.49 251.12,234.15 259.96,225.00
             279.11,205.18 287.04,175.90 287.00,149.00
             286.96,123.23 274.09,91.16 243.00,95.46 Z
           M 196.00,182.00
           C 196.00,182.00 199.75,198.00 199.75,198.00
             201.59,203.76 204.53,209.35 208.62,213.83
             215.73,221.63 229.02,226.67 238.00,219.00
             233.55,219.00 229.16,219.33 225.00,217.44
             211.86,211.49 208.01,194.03 208.00,181.00
             210.35,185.62 210.23,190.92 212.09,196.00
             215.96,206.52 230.01,219.34 241.00,210.00
             224.55,209.84 220.04,196.19 220.00,182.00
             223.11,188.08 221.90,194.28 228.33,200.67
             237.00,209.30 247.48,203.72 254.19,195.91
             261.04,187.95 266.49,173.59 265.68,163.00
             265.03,154.57 261.76,143.09 253.00,139.74
             250.71,138.86 247.46,139.01 245.00,139.00
             256.34,130.35 265.31,147.87 269.00,152.00
             267.65,135.97 259.27,123.16 242.00,123.00
             246.02,120.95 248.63,120.98 253.00,122.04
             266.96,125.44 270.48,136.95 274.00,149.00
             276.81,135.16 265.69,113.33 252.00,108.61
             246.85,106.83 244.16,107.33 239.00,108.00
             245.69,102.87 256.51,105.82 263.00,110.11
             276.87,119.26 281.17,140.43 281.00,156.00
             280.73,179.39 269.23,209.05 250.00,223.07
             246.62,225.54 242.00,227.99 238.00,229.23
             235.22,230.09 230.89,230.95 228.00,230.79
             203.48,229.42 196.00,202.28 196.00,182.00 Z
           M 268.00,154.00
           C 268.00,154.00 269.00,161.00 269.00,161.00
             270.25,157.71 270.07,156.82 268.00,154.00 Z
           M 242.00,210.00
           C 242.00,210.00 242.00,211.00 242.00,211.00
             242.00,211.00 243.00,210.00 243.00,210.00
             243.00,210.00 242.00,210.00 242.00,210.00 Z
           M 262.00,357.00
           C 258.34,364.46 252.70,370.95 246.00,375.84
             241.00,379.49 235.26,382.30 229.00,382.81
             223.47,383.27 219.69,380.93 217.51,381.28
             215.26,381.65 214.03,384.10 211.93,384.85
             204.50,387.50 208.52,374.61 208.52,374.29
             208.53,373.10 208.34,372.79 207.88,371.73
             207.88,371.73 203.52,362.00 203.52,362.00
             199.35,349.19 200.64,332.83 204.15,320.00
             204.15,320.00 207.85,307.00 207.85,307.00
             208.48,303.10 206.50,300.98 207.85,297.02
             208.81,293.12 211.21,290.79 215.00,293.00
             222.13,285.23 223.74,281.15 233.00,274.77
             237.96,271.36 244.91,268.81 251.00,269.10
             251.00,269.10 260.00,270.82 260.00,270.82
             263.62,270.97 271.75,264.57 270.40,275.00
             270.42,276.88 269.88,277.97 270.40,280.00
             270.63,283.15 273.85,287.04 275.56,298.00
             277.15,308.18 275.74,322.04 273.12,332.00
             273.12,332.00 270.02,343.00 270.02,343.00
             269.74,346.04 274.19,358.99 262.00,357.00 Z
           M 247.00,276.48
           C 223.16,280.71 207.27,312.64 207.15,335.00
             207.15,335.00 207.15,351.00 207.15,351.00
             209.05,364.47 216.79,376.69 232.00,374.82
             239.15,373.94 246.05,368.99 250.96,363.99
             261.89,352.84 270.81,331.68 271.00,316.00
             271.00,316.00 271.00,306.00 271.00,306.00
             270.83,291.55 263.80,275.56 247.00,276.48 Z
           M 211.00,339.00
           C 214.13,345.13 215.43,363.25 230.00,362.72
             232.28,362.64 234.84,361.70 237.00,361.00
             234.21,360.18 230.37,359.77 228.04,358.55
             220.91,354.79 219.07,345.31 219.00,338.00
             223.18,346.14 221.77,355.62 237.00,356.00
             229.99,348.75 227.26,349.71 227.00,338.00
             228.69,341.22 229.36,345.07 232.22,347.57
             237.90,352.54 243.69,348.50 247.90,343.98
             256.78,334.44 264.09,306.64 244.00,306.00
             250.03,301.59 254.22,306.37 259.00,310.00
             255.45,299.46 253.65,296.04 242.00,296.00
             251.15,289.26 259.11,298.93 262.00,307.00
             262.70,298.47 256.86,287.47 248.00,285.77
             245.09,284.91 242.85,285.50 240.00,285.77
             247.03,280.03 257.12,284.13 261.89,291.04
             267.44,299.08 267.10,307.75 267.00,317.00
             266.81,333.28 257.42,354.06 244.00,363.48
             241.85,365.00 239.51,366.27 237.00,367.09
             218.50,373.09 211.04,353.75 211.00,339.00 Z
           M 310.90,351.34
           C 315.88,353.44 313.67,360.23 309.95,361.83
             307.07,363.07 306.10,360.29 306.16,357.98
             306.26,354.33 307.59,352.45 310.90,351.34 Z
           M 325.00,373.00
           C 325.00,373.00 325.00,374.00 325.00,374.00
             325.00,374.00 324.00,373.00 324.00,373.00
             324.00,373.00 325.00,373.00 325.00,373.00 Z
           M 323.00,374.00
           C 323.00,374.00 323.00,375.00 323.00,375.00
             323.00,375.00 322.00,374.00 322.00,374.00
             322.00,374.00 323.00,374.00 323.00,374.00 Z
           M 320.00,376.00
           C 320.00,376.00 320.00,377.00 320.00,377.00
             320.00,377.00 319.00,376.00 319.00,376.00
             319.00,376.00 320.00,376.00 320.00,376.00 Z
           M 318.00,377.00
           C 318.00,377.00 318.00,378.00 318.00,378.00
             318.00,378.00 317.00,377.00 317.00,377.00
             317.00,377.00 318.00,377.00 318.00,377.00 Z
           M 316.00,378.00
           C 316.00,378.00 316.00,379.00 316.00,379.00
             316.00,379.00 315.00,378.00 315.00,378.00
             315.00,378.00 316.00,378.00 316.00,378.00 Z
           M 320.00,378.00
           C 320.00,378.00 320.00,379.00 320.00,379.00
             320.00,379.00 319.00,378.00 319.00,378.00
             319.00,378.00 320.00,378.00 320.00,378.00 Z
           M 314.00,379.00
           C 314.00,379.00 314.00,380.00 314.00,380.00
             314.00,380.00 313.00,379.00 313.00,379.00
             313.00,379.00 314.00,379.00 314.00,379.00 Z
           M 318.00,379.00
           C 318.00,379.00 318.00,380.00 318.00,380.00
             318.00,380.00 317.00,379.00 317.00,379.00
             317.00,379.00 318.00,379.00 318.00,379.00 Z
           M 312.00,380.00
           C 312.00,380.00 312.00,381.00 312.00,381.00
             312.00,381.00 311.00,380.00 311.00,380.00
             311.00,380.00 312.00,380.00 312.00,380.00 Z
           M 316.00,380.00
           C 316.00,380.00 316.00,381.00 316.00,381.00
             316.00,381.00 315.00,380.00 315.00,380.00
             315.00,380.00 316.00,380.00 316.00,380.00 Z
           M 310.00,381.00
           C 310.00,381.00 310.00,382.00 310.00,382.00
             310.00,382.00 309.00,381.00 309.00,381.00
             309.00,381.00 310.00,381.00 310.00,381.00 Z
           M 309.00,382.00
           C 309.00,382.00 309.00,383.00 309.00,383.00
             309.00,383.00 308.00,382.00 308.00,382.00
             308.00,382.00 309.00,382.00 309.00,382.00 Z
           M 307.00,383.00
           C 307.00,383.00 307.00,384.00 307.00,384.00
             307.00,384.00 306.00,383.00 306.00,383.00
             306.00,383.00 307.00,383.00 307.00,383.00 Z
           M 305.00,384.00
           C 305.00,384.00 305.00,385.00 305.00,385.00
             305.00,385.00 304.00,384.00 304.00,384.00
             304.00,384.00 305.00,384.00 305.00,384.00 Z
           M 309.00,384.00
           C 309.00,384.00 309.00,385.00 309.00,385.00
             309.00,385.00 308.00,384.00 308.00,384.00
             308.00,384.00 309.00,384.00 309.00,384.00 Z
           M 303.00,385.00
           C 303.00,385.00 303.00,386.00 303.00,386.00
             303.00,386.00 302.00,385.00 302.00,385.00
             302.00,385.00 303.00,385.00 303.00,385.00 Z
           M 301.00,386.00
           C 301.00,386.00 301.00,387.00 301.00,387.00
             301.00,387.00 300.00,386.00 300.00,386.00
             300.00,386.00 301.00,386.00 301.00,386.00 Z
           M 305.00,386.00
           C 305.00,386.00 305.00,387.00 305.00,387.00
             305.00,387.00 304.00,386.00 304.00,386.00
             304.00,386.00 305.00,386.00 305.00,386.00 Z
           M 299.00,387.00
           C 299.00,387.00 299.00,388.00 299.00,388.00
             299.00,388.00 298.00,387.00 298.00,387.00
             298.00,387.00 299.00,387.00 299.00,387.00 Z
           M 298.00,388.00
           C 298.00,388.00 298.00,389.00 298.00,389.00
             298.00,389.00 297.00,388.00 297.00,388.00
             297.00,388.00 298.00,388.00 298.00,388.00 Z
           M 296.00,389.00
           C 296.00,389.00 296.00,390.00 296.00,390.00
             296.00,390.00 295.00,389.00 295.00,389.00
             295.00,389.00 296.00,389.00 296.00,389.00 Z
           M 294.00,390.00
           C 294.00,390.00 294.00,391.00 294.00,391.00
             294.00,391.00 293.00,390.00 293.00,390.00
             293.00,390.00 294.00,390.00 294.00,390.00 Z
           M 292.00,391.00
           C 292.00,391.00 292.00,392.00 292.00,392.00
             292.00,392.00 291.00,391.00 291.00,391.00
             291.00,391.00 292.00,391.00 292.00,391.00 Z
           M 290.00,392.00
           C 290.00,392.00 290.00,393.00 290.00,393.00
             290.00,393.00 289.00,392.00 289.00,392.00
             289.00,392.00 290.00,392.00 290.00,392.00 Z
           M 294.00,392.00
           C 294.00,392.00 294.00,393.00 294.00,393.00
             294.00,393.00 293.00,392.00 293.00,392.00
             293.00,392.00 294.00,392.00 294.00,392.00 Z
           M 288.00,393.00
           C 288.00,393.00 288.00,394.00 288.00,394.00
             288.00,394.00 287.00,393.00 287.00,393.00
             287.00,393.00 288.00,393.00 288.00,393.00 Z
           M 287.00,394.00
           C 287.00,394.00 287.00,395.00 287.00,395.00
             287.00,395.00 286.00,394.00 286.00,394.00
             286.00,394.00 287.00,394.00 287.00,394.00 Z
           M 285.00,395.00
           C 285.00,395.00 285.00,396.00 285.00,396.00
             285.00,396.00 284.00,395.00 284.00,395.00
             284.00,395.00 285.00,395.00 285.00,395.00 Z
           M 283.00,396.00
           C 283.00,396.00 283.00,397.00 283.00,397.00
             283.00,397.00 282.00,396.00 282.00,396.00
             282.00,396.00 283.00,396.00 283.00,396.00 Z
           M 281.00,397.00
           C 281.00,397.00 281.00,398.00 281.00,398.00
             281.00,398.00 280.00,397.00 280.00,397.00
             280.00,397.00 281.00,397.00 281.00,397.00 Z
           M 279.00,398.00
           C 279.00,398.00 279.00,399.00 279.00,399.00
             279.00,399.00 278.00,398.00 278.00,398.00
             278.00,398.00 279.00,398.00 279.00,398.00 Z
           M 283.00,398.00
           C 283.00,398.00 283.00,399.00 283.00,399.00
             283.00,399.00 282.00,398.00 282.00,398.00
             282.00,398.00 283.00,398.00 283.00,398.00 Z
           M 3.00,399.00
           C 3.00,399.00 3.00,400.00 3.00,400.00
             3.00,400.00 2.00,399.00 2.00,399.00
             2.00,399.00 3.00,399.00 3.00,399.00 Z
           M 277.00,399.00
           C 277.00,399.00 277.00,400.00 277.00,400.00
             277.00,400.00 276.00,399.00 276.00,399.00
             276.00,399.00 277.00,399.00 277.00,399.00 Z
           M 5.00,400.00
           C 5.00,400.00 5.00,401.00 5.00,401.00
             5.00,401.00 4.00,400.00 4.00,400.00
             4.00,400.00 5.00,400.00 5.00,400.00 Z
           M 276.00,400.00
           C 276.00,400.00 276.00,401.00 276.00,401.00
             276.00,401.00 275.00,400.00 275.00,400.00
             275.00,400.00 276.00,400.00 276.00,400.00 Z
           M 7.00,401.00
           C 7.00,401.00 7.00,402.00 7.00,402.00
             7.00,402.00 6.00,401.00 6.00,401.00
             6.00,401.00 7.00,401.00 7.00,401.00 Z
           M 274.00,401.00
           C 274.00,401.00 274.00,402.00 274.00,402.00
             274.00,402.00 273.00,401.00 273.00,401.00
             273.00,401.00 274.00,401.00 274.00,401.00 Z
           M 9.00,402.00
           C 9.00,402.00 9.00,403.00 9.00,403.00
             9.00,403.00 8.00,402.00 8.00,402.00
             8.00,402.00 9.00,402.00 9.00,402.00 Z
           M 272.00,402.00
           C 272.00,402.00 272.00,403.00 272.00,403.00
             272.00,403.00 271.00,402.00 271.00,402.00
             271.00,402.00 272.00,402.00 272.00,402.00 Z
           M 270.00,403.00
           C 270.00,403.00 270.00,404.00 270.00,404.00
             270.00,404.00 269.00,403.00 269.00,403.00
             269.00,403.00 270.00,403.00 270.00,403.00 Z
           M 274.00,403.00
           C 274.00,403.00 274.00,404.00 274.00,404.00
             274.00,404.00 273.00,403.00 273.00,403.00
             273.00,403.00 274.00,403.00 274.00,403.00 Z
           M 12.00,404.00
           C 12.00,404.00 12.00,405.00 12.00,405.00
             12.00,405.00 11.00,404.00 11.00,404.00
             11.00,404.00 12.00,404.00 12.00,404.00 Z
           M 268.00,404.00
           C 268.00,404.00 268.00,405.00 268.00,405.00
             268.00,405.00 267.00,404.00 267.00,404.00
             267.00,404.00 268.00,404.00 268.00,404.00 Z
           M 272.00,404.00
           C 272.00,404.00 272.00,405.00 272.00,405.00
             272.00,405.00 271.00,404.00 271.00,404.00
             271.00,404.00 272.00,404.00 272.00,404.00 Z
           M 14.00,405.00
           C 14.00,405.00 14.00,406.00 14.00,406.00
             14.00,406.00 13.00,405.00 13.00,405.00
             13.00,405.00 14.00,405.00 14.00,405.00 Z
           M 266.00,405.00
           C 266.00,405.00 266.00,406.00 266.00,406.00
             266.00,406.00 265.00,405.00 265.00,405.00
             265.00,405.00 266.00,405.00 266.00,405.00 Z
           M 270.00,405.00
           C 270.00,405.00 270.00,406.00 270.00,406.00
             270.00,406.00 269.00,405.00 269.00,405.00
             269.00,405.00 270.00,405.00 270.00,405.00 Z
           M 16.00,406.00
           C 16.00,406.00 16.00,407.00 16.00,407.00
             16.00,407.00 15.00,406.00 15.00,406.00
             15.00,406.00 16.00,406.00 16.00,406.00 Z
           M 265.00,406.00
           C 265.00,406.00 265.00,407.00 265.00,407.00
             265.00,407.00 264.00,406.00 264.00,406.00
             264.00,406.00 265.00,406.00 265.00,406.00 Z
           M 14.00,407.00
           C 14.00,407.00 14.00,408.00 14.00,408.00
             14.00,408.00 13.00,407.00 13.00,407.00
             13.00,407.00 14.00,407.00 14.00,407.00 Z
           M 18.00,407.00
           C 18.00,407.00 18.00,408.00 18.00,408.00
             18.00,408.00 17.00,407.00 17.00,407.00
             17.00,407.00 18.00,407.00 18.00,407.00 Z
           M 263.00,407.00
           C 263.00,407.00 263.00,408.00 263.00,408.00
             263.00,408.00 262.00,407.00 262.00,407.00
             262.00,407.00 263.00,407.00 263.00,407.00 Z
           M 16.00,408.00
           C 16.00,408.00 16.00,409.00 16.00,409.00
             16.00,409.00 15.00,408.00 15.00,408.00
             15.00,408.00 16.00,408.00 16.00,408.00 Z
           M 20.00,408.00
           C 20.00,408.00 20.00,409.00 20.00,409.00
             20.00,409.00 19.00,408.00 19.00,408.00
             19.00,408.00 20.00,408.00 20.00,408.00 Z
           M 261.00,408.00
           C 261.00,408.00 261.00,409.00 261.00,409.00
             261.00,409.00 260.00,408.00 260.00,408.00
             260.00,408.00 261.00,408.00 261.00,408.00 Z
           M 18.00,409.00
           C 18.00,409.00 18.00,410.00 18.00,410.00
             18.00,410.00 17.00,409.00 17.00,409.00
             17.00,409.00 18.00,409.00 18.00,409.00 Z
           M 22.00,409.00
           C 22.00,409.00 22.00,410.00 22.00,410.00
             22.00,410.00 21.00,409.00 21.00,409.00
             21.00,409.00 22.00,409.00 22.00,409.00 Z
           M 259.00,409.00
           C 259.00,409.00 259.00,410.00 259.00,410.00
             259.00,410.00 258.00,409.00 258.00,409.00
             258.00,409.00 259.00,409.00 259.00,409.00 Z
           M 263.00,409.00
           C 263.00,409.00 263.00,410.00 263.00,410.00
             263.00,410.00 262.00,409.00 262.00,409.00
             262.00,409.00 263.00,409.00 263.00,409.00 Z
           M 20.00,410.00
           C 20.00,410.00 20.00,411.00 20.00,411.00
             20.00,411.00 19.00,410.00 19.00,410.00
             19.00,410.00 20.00,410.00 20.00,410.00 Z
           M 24.00,410.00
           C 24.00,410.00 24.00,411.00 24.00,411.00
             24.00,411.00 23.00,410.00 23.00,410.00
             23.00,410.00 24.00,410.00 24.00,410.00 Z
           M 257.00,410.00
           C 257.00,410.00 257.00,411.00 257.00,411.00
             257.00,411.00 256.00,410.00 256.00,410.00
             256.00,410.00 257.00,410.00 257.00,410.00 Z
           M 261.00,410.00
           C 261.00,410.00 261.00,411.00 261.00,411.00
             261.00,411.00 260.00,410.00 260.00,410.00
             260.00,410.00 261.00,410.00 261.00,410.00 Z
           M 22.00,411.00
           C 22.00,411.00 22.00,412.00 22.00,412.00
             22.00,412.00 21.00,411.00 21.00,411.00
             21.00,411.00 22.00,411.00 22.00,411.00 Z
           M 26.00,411.00
           C 26.00,411.00 26.00,412.00 26.00,412.00
             26.00,412.00 25.00,411.00 25.00,411.00
             25.00,411.00 26.00,411.00 26.00,411.00 Z
           M 255.00,411.00
           C 255.00,411.00 255.00,412.00 255.00,412.00
             255.00,412.00 254.00,411.00 254.00,411.00
             254.00,411.00 255.00,411.00 255.00,411.00 Z
           M 28.00,412.00
           C 28.00,412.00 28.00,413.00 28.00,413.00
             28.00,413.00 27.00,412.00 27.00,412.00
             27.00,412.00 28.00,412.00 28.00,412.00 Z
           M 254.00,412.00
           C 254.00,412.00 254.00,413.00 254.00,413.00
             254.00,413.00 253.00,412.00 253.00,412.00
             253.00,412.00 254.00,412.00 254.00,412.00 Z
           M 29.00,413.00
           C 29.00,413.00 29.00,414.00 29.00,414.00
             29.00,414.00 28.00,413.00 28.00,413.00
             28.00,413.00 29.00,413.00 29.00,413.00 Z
           M 252.00,413.00
           C 252.00,413.00 252.00,414.00 252.00,414.00
             252.00,414.00 251.00,413.00 251.00,413.00
             251.00,413.00 252.00,413.00 252.00,413.00 Z
           M 31.00,414.00
           C 31.00,414.00 31.00,415.00 31.00,415.00
             31.00,415.00 30.00,414.00 30.00,414.00
             30.00,414.00 31.00,414.00 31.00,414.00 Z
           M 250.00,414.00
           C 250.00,414.00 250.00,415.00 250.00,415.00
             250.00,415.00 249.00,414.00 249.00,414.00
             249.00,414.00 250.00,414.00 250.00,414.00 Z
           M 33.00,415.00
           C 33.00,415.00 33.00,416.00 33.00,416.00
             33.00,416.00 32.00,415.00 32.00,415.00
             32.00,415.00 33.00,415.00 33.00,415.00 Z
           M 248.00,415.00
           C 248.00,415.00 248.00,416.00 248.00,416.00
             248.00,416.00 247.00,415.00 247.00,415.00
             247.00,415.00 248.00,415.00 248.00,415.00 Z
           M 252.00,415.00
           C 252.00,415.00 252.00,416.00 252.00,416.00
             252.00,416.00 251.00,415.00 251.00,415.00
             251.00,415.00 252.00,415.00 252.00,415.00 Z
           M 35.00,416.00
           C 35.00,416.00 35.00,417.00 35.00,417.00
             35.00,417.00 34.00,416.00 34.00,416.00
             34.00,416.00 35.00,416.00 35.00,416.00 Z
           M 246.00,416.00
           C 246.00,416.00 246.00,417.00 246.00,417.00
             246.00,417.00 245.00,416.00 245.00,416.00
             245.00,416.00 246.00,416.00 246.00,416.00 Z
           M 250.00,416.00
           C 250.00,416.00 250.00,417.00 250.00,417.00
             250.00,417.00 249.00,416.00 249.00,416.00
             249.00,416.00 250.00,416.00 250.00,416.00 Z
           M 37.00,417.00
           C 37.00,417.00 37.00,418.00 37.00,418.00
             37.00,418.00 36.00,417.00 36.00,417.00
             36.00,417.00 37.00,417.00 37.00,417.00 Z
           M 244.00,417.00
           C 244.00,417.00 244.00,418.00 244.00,418.00
             244.00,418.00 243.00,417.00 243.00,417.00
             243.00,417.00 244.00,417.00 244.00,417.00 Z
           M 35.00,418.00
           C 35.00,418.00 35.00,419.00 35.00,419.00
             35.00,419.00 34.00,418.00 34.00,418.00
             34.00,418.00 35.00,418.00 35.00,418.00 Z
           M 39.00,418.00
           C 39.00,418.00 39.00,419.00 39.00,419.00
             39.00,419.00 38.00,418.00 38.00,418.00
             38.00,418.00 39.00,418.00 39.00,418.00 Z
           M 37.00,419.00
           C 37.00,419.00 37.00,420.00 37.00,420.00
             37.00,420.00 36.00,419.00 36.00,419.00
             36.00,419.00 37.00,419.00 37.00,419.00 Z
           M 41.00,419.00
           C 41.00,419.00 41.00,420.00 41.00,420.00
             41.00,420.00 40.00,419.00 40.00,419.00
             40.00,419.00 41.00,419.00 41.00,419.00 Z
           M 241.00,419.00
           C 241.00,419.00 241.00,420.00 241.00,420.00
             241.00,420.00 240.00,419.00 240.00,419.00
             240.00,419.00 241.00,419.00 241.00,419.00 Z
           M 39.00,420.00
           C 39.00,420.00 39.00,421.00 39.00,421.00
             39.00,421.00 38.00,420.00 38.00,420.00
             38.00,420.00 39.00,420.00 39.00,420.00 Z
           M 43.00,420.00
           C 43.00,420.00 43.00,421.00 43.00,421.00
             43.00,421.00 42.00,420.00 42.00,420.00
             42.00,420.00 43.00,420.00 43.00,420.00 Z
           M 239.00,420.00
           C 239.00,420.00 239.00,421.00 239.00,421.00
             239.00,421.00 238.00,420.00 238.00,420.00
             238.00,420.00 239.00,420.00 239.00,420.00 Z
           M 45.00,421.00
           C 45.00,421.00 45.00,422.00 45.00,422.00
             45.00,422.00 44.00,421.00 44.00,421.00
             44.00,421.00 45.00,421.00 45.00,421.00 Z
           M 237.00,421.00
           C 237.00,421.00 237.00,422.00 237.00,422.00
             237.00,422.00 236.00,421.00 236.00,421.00
             236.00,421.00 237.00,421.00 237.00,421.00 Z
           M 241.00,421.00
           C 241.00,421.00 241.00,422.00 241.00,422.00
             241.00,422.00 240.00,421.00 240.00,421.00
             240.00,421.00 241.00,421.00 241.00,421.00 Z
           M 47.00,422.00
           C 47.00,422.00 47.00,423.00 47.00,423.00
             47.00,423.00 46.00,422.00 46.00,422.00
             46.00,422.00 47.00,422.00 47.00,422.00 Z
           M 235.00,422.00
           C 235.00,422.00 235.00,423.00 235.00,423.00
             235.00,423.00 234.00,422.00 234.00,422.00
             234.00,422.00 235.00,422.00 235.00,422.00 Z
           M 239.00,422.00
           C 239.00,422.00 239.00,423.00 239.00,423.00
             239.00,423.00 238.00,422.00 238.00,422.00
             238.00,422.00 239.00,422.00 239.00,422.00 Z
           M 233.00,423.00
           C 233.00,423.00 233.00,424.00 233.00,424.00
             233.00,424.00 232.00,423.00 232.00,423.00
             232.00,423.00 233.00,423.00 233.00,423.00 Z
           M 237.00,423.00
           C 237.00,423.00 237.00,424.00 237.00,424.00
             237.00,424.00 236.00,423.00 236.00,423.00
             236.00,423.00 237.00,423.00 237.00,423.00 Z
           M 50.00,424.00
           C 50.00,424.00 50.00,425.00 50.00,425.00
             50.00,425.00 49.00,424.00 49.00,424.00
             49.00,424.00 50.00,424.00 50.00,424.00 Z
           M 52.00,425.00
           C 52.00,425.00 52.00,426.00 52.00,426.00
             52.00,426.00 51.00,425.00 51.00,425.00
             51.00,425.00 52.00,425.00 52.00,425.00 Z
           M 230.00,425.00
           C 230.00,425.00 230.00,426.00 230.00,426.00
             230.00,426.00 229.00,425.00 229.00,425.00
             229.00,425.00 230.00,425.00 230.00,425.00 Z
           M 54.00,426.00
           C 54.00,426.00 54.00,427.00 54.00,427.00
             54.00,427.00 53.00,426.00 53.00,426.00
             53.00,426.00 54.00,426.00 54.00,426.00 Z
           M 228.00,426.00
           C 228.00,426.00 228.00,427.00 228.00,427.00
             228.00,427.00 227.00,426.00 227.00,426.00
             227.00,426.00 228.00,426.00 228.00,426.00 Z
           M 52.00,427.00
           C 52.00,427.00 52.00,428.00 52.00,428.00
             52.00,428.00 51.00,427.00 51.00,427.00
             51.00,427.00 52.00,427.00 52.00,427.00 Z
           M 56.00,427.00
           C 56.00,427.00 56.00,428.00 56.00,428.00
             56.00,428.00 55.00,427.00 55.00,427.00
             55.00,427.00 56.00,427.00 56.00,427.00 Z
           M 226.00,427.00
           C 226.00,427.00 226.00,428.00 226.00,428.00
             226.00,428.00 225.00,427.00 225.00,427.00
             225.00,427.00 226.00,427.00 226.00,427.00 Z
           M 230.00,427.00
           C 230.00,427.00 230.00,428.00 230.00,428.00
             230.00,428.00 229.00,427.00 229.00,427.00
             229.00,427.00 230.00,427.00 230.00,427.00 Z
           M 54.00,428.00
           C 54.00,428.00 54.00,429.00 54.00,429.00
             54.00,429.00 53.00,428.00 53.00,428.00
             53.00,428.00 54.00,428.00 54.00,428.00 Z
           M 58.00,428.00
           C 58.00,428.00 58.00,429.00 58.00,429.00
             58.00,429.00 57.00,428.00 57.00,428.00
             57.00,428.00 58.00,428.00 58.00,428.00 Z
           M 224.00,428.00
           C 224.00,428.00 224.00,429.00 224.00,429.00
             224.00,429.00 223.00,428.00 223.00,428.00
             223.00,428.00 224.00,428.00 224.00,428.00 Z
           M 228.00,428.00
           C 228.00,428.00 228.00,429.00 228.00,429.00
             228.00,429.00 227.00,428.00 227.00,428.00
             227.00,428.00 228.00,428.00 228.00,428.00 Z
           M 56.00,429.00
           C 56.00,429.00 56.00,430.00 56.00,430.00
             56.00,430.00 55.00,429.00 55.00,429.00
             55.00,429.00 56.00,429.00 56.00,429.00 Z
           M 60.00,429.00
           C 60.00,429.00 60.00,430.00 60.00,430.00
             60.00,430.00 59.00,429.00 59.00,429.00
             59.00,429.00 60.00,429.00 60.00,429.00 Z
           M 160.00,429.74
           C 168.07,430.08 163.77,440.87 159.01,442.12
             155.68,442.99 154.43,439.73 154.72,437.00
             155.11,433.30 156.91,431.37 160.00,429.74 Z
           M 222.00,429.00
           C 222.00,429.00 222.00,430.00 222.00,430.00
             222.00,430.00 221.00,429.00 221.00,429.00
             221.00,429.00 222.00,429.00 222.00,429.00 Z
           M 58.00,430.00
           C 58.00,430.00 58.00,431.00 58.00,431.00
             58.00,431.00 57.00,430.00 57.00,430.00
             57.00,430.00 58.00,430.00 58.00,430.00 Z
           M 62.00,430.00
           C 62.00,430.00 62.00,431.00 62.00,431.00
             62.00,431.00 61.00,430.00 61.00,430.00
             61.00,430.00 62.00,430.00 62.00,430.00 Z
           M 220.00,430.00
           C 220.00,430.00 220.00,431.00 220.00,431.00
             220.00,431.00 219.00,430.00 219.00,430.00
             219.00,430.00 220.00,430.00 220.00,430.00 Z
           M 60.00,431.00
           C 60.00,431.00 60.00,432.00 60.00,432.00
             60.00,432.00 59.00,431.00 59.00,431.00
             59.00,431.00 60.00,431.00 60.00,431.00 Z
           M 64.00,431.00
           C 64.00,431.00 64.00,432.00 64.00,432.00
             64.00,432.00 63.00,431.00 63.00,431.00
             63.00,431.00 64.00,431.00 64.00,431.00 Z
           M 219.00,431.00
           C 219.00,431.00 219.00,432.00 219.00,432.00
             219.00,432.00 218.00,431.00 218.00,431.00
             218.00,431.00 219.00,431.00 219.00,431.00 Z
           M 66.00,432.00
           C 66.00,432.00 66.00,433.00 66.00,433.00
             66.00,433.00 65.00,432.00 65.00,432.00
             65.00,432.00 66.00,432.00 66.00,432.00 Z
           M 217.00,432.00
           C 217.00,432.00 217.00,433.00 217.00,433.00
             217.00,433.00 216.00,432.00 216.00,432.00
             216.00,432.00 217.00,432.00 217.00,432.00 Z
           M 67.00,433.00
           C 67.00,433.00 67.00,434.00 67.00,434.00
             67.00,434.00 66.00,433.00 66.00,433.00
             66.00,433.00 67.00,433.00 67.00,433.00 Z
           M 215.00,433.00
           C 215.00,433.00 215.00,434.00 215.00,434.00
             215.00,434.00 214.00,433.00 214.00,433.00
             214.00,433.00 215.00,433.00 215.00,433.00 Z
           M 219.00,433.00
           C 219.00,433.00 219.00,434.00 219.00,434.00
             219.00,434.00 218.00,433.00 218.00,433.00
             218.00,433.00 219.00,433.00 219.00,433.00 Z
           M 69.00,434.00
           C 69.00,434.00 69.00,435.00 69.00,435.00
             69.00,435.00 68.00,434.00 68.00,434.00
             68.00,434.00 69.00,434.00 69.00,434.00 Z
           M 213.00,434.00
           C 213.00,434.00 213.00,435.00 213.00,435.00
             213.00,435.00 212.00,434.00 212.00,434.00
             212.00,434.00 213.00,434.00 213.00,434.00 Z
           M 217.00,434.00
           C 217.00,434.00 217.00,435.00 217.00,435.00
             217.00,435.00 216.00,434.00 216.00,434.00
             216.00,434.00 217.00,434.00 217.00,434.00 Z
           M 71.00,435.00
           C 71.00,435.00 71.00,436.00 71.00,436.00
             71.00,436.00 70.00,435.00 70.00,435.00
             70.00,435.00 71.00,435.00 71.00,435.00 Z
           M 211.00,435.00
           C 211.00,435.00 211.00,436.00 211.00,436.00
             211.00,436.00 210.00,435.00 210.00,435.00
             210.00,435.00 211.00,435.00 211.00,435.00 Z
           M 73.00,436.00
           C 73.00,436.00 73.00,437.00 73.00,437.00
             73.00,437.00 72.00,436.00 72.00,436.00
             72.00,436.00 73.00,436.00 73.00,436.00 Z
           M 209.00,436.00
           C 209.00,436.00 209.00,437.00 209.00,437.00
             209.00,437.00 208.00,436.00 208.00,436.00
             208.00,436.00 209.00,436.00 209.00,436.00 Z
           M 75.00,437.00
           C 75.00,437.00 75.00,438.00 75.00,438.00
             75.00,438.00 74.00,437.00 74.00,437.00
             74.00,437.00 75.00,437.00 75.00,437.00 Z
           M 208.00,437.00
           C 208.00,437.00 208.00,438.00 208.00,438.00
             208.00,438.00 207.00,437.00 207.00,437.00
             207.00,437.00 208.00,437.00 208.00,437.00 Z
           M 73.00,438.00
           C 73.00,438.00 73.00,439.00 73.00,439.00
             73.00,439.00 72.00,438.00 72.00,438.00
             72.00,438.00 73.00,438.00 73.00,438.00 Z
           M 77.00,438.00
           C 77.00,438.00 77.00,439.00 77.00,439.00
             77.00,439.00 76.00,438.00 76.00,438.00
             76.00,438.00 77.00,438.00 77.00,438.00 Z
           M 206.00,438.00
           C 206.00,438.00 206.00,439.00 206.00,439.00
             206.00,439.00 205.00,438.00 205.00,438.00
             205.00,438.00 206.00,438.00 206.00,438.00 Z
           M 75.00,439.00
           C 75.00,439.00 75.00,440.00 75.00,440.00
             75.00,440.00 74.00,439.00 74.00,439.00
             74.00,439.00 75.00,439.00 75.00,439.00 Z
           M 79.00,439.00
           C 79.00,439.00 79.00,440.00 79.00,440.00
             79.00,440.00 78.00,439.00 78.00,439.00
             78.00,439.00 79.00,439.00 79.00,439.00 Z
           M 204.00,439.00
           C 204.00,439.00 204.00,440.00 204.00,440.00
             204.00,440.00 203.00,439.00 203.00,439.00
             203.00,439.00 204.00,439.00 204.00,439.00 Z
           M 208.00,439.00
           C 208.00,439.00 208.00,440.00 208.00,440.00
             208.00,440.00 207.00,439.00 207.00,439.00
             207.00,439.00 208.00,439.00 208.00,439.00 Z
           M 77.00,440.00
           C 77.00,440.00 77.00,441.00 77.00,441.00
             77.00,441.00 76.00,440.00 76.00,440.00
             76.00,440.00 77.00,440.00 77.00,440.00 Z
           M 81.00,440.00
           C 81.00,440.00 81.00,441.00 81.00,441.00
             81.00,441.00 80.00,440.00 80.00,440.00
             80.00,440.00 81.00,440.00 81.00,440.00 Z
           M 202.00,440.00
           C 202.00,440.00 202.00,441.00 202.00,441.00
             202.00,441.00 201.00,440.00 201.00,440.00
             201.00,440.00 202.00,440.00 202.00,440.00 Z
           M 83.00,441.00
           C 83.00,441.00 83.00,442.00 83.00,442.00
             83.00,442.00 82.00,441.00 82.00,441.00
             82.00,441.00 83.00,441.00 83.00,441.00 Z
           M 200.00,441.00
           C 200.00,441.00 200.00,442.00 200.00,442.00
             200.00,442.00 199.00,441.00 199.00,441.00
             199.00,441.00 200.00,441.00 200.00,441.00 Z
           M 204.00,441.00
           C 204.00,441.00 204.00,442.00 204.00,442.00
             204.00,442.00 203.00,441.00 203.00,441.00
             203.00,441.00 204.00,441.00 204.00,441.00 Z
           M 85.00,442.00
           C 85.00,442.00 85.00,443.00 85.00,443.00
             85.00,443.00 84.00,442.00 84.00,442.00
             84.00,442.00 85.00,442.00 85.00,442.00 Z
           M 199.00,442.00
           C 199.00,442.00 199.00,443.00 199.00,443.00
             199.00,443.00 198.00,442.00 198.00,442.00
             198.00,442.00 199.00,442.00 199.00,442.00 Z
           M 86.00,443.00
           C 86.00,443.00 86.00,444.00 86.00,444.00
             86.00,444.00 85.00,443.00 85.00,443.00
             85.00,443.00 86.00,443.00 86.00,443.00 Z
           M 197.00,443.00
           C 197.00,443.00 197.00,444.00 197.00,444.00
             197.00,444.00 196.00,443.00 196.00,443.00
             196.00,443.00 197.00,443.00 197.00,443.00 Z
           M 88.00,444.00
           C 88.00,444.00 88.00,445.00 88.00,445.00
             88.00,445.00 87.00,444.00 87.00,444.00
             87.00,444.00 88.00,444.00 88.00,444.00 Z
           M 195.00,444.00
           C 195.00,444.00 195.00,445.00 195.00,445.00
             195.00,445.00 194.00,444.00 194.00,444.00
             194.00,444.00 195.00,444.00 195.00,444.00 Z
           M 90.00,445.00
           C 90.00,445.00 90.00,446.00 90.00,446.00
             90.00,446.00 89.00,445.00 89.00,445.00
             89.00,445.00 90.00,445.00 90.00,445.00 Z
           M 193.00,445.00
           C 193.00,445.00 193.00,446.00 193.00,446.00
             193.00,446.00 192.00,445.00 192.00,445.00
             192.00,445.00 193.00,445.00 193.00,445.00 Z
           M 197.00,445.00
           C 197.00,445.00 197.00,446.00 197.00,446.00
             197.00,446.00 196.00,445.00 196.00,445.00
             196.00,445.00 197.00,445.00 197.00,445.00 Z
           M 92.00,446.00
           C 92.00,446.00 92.00,447.00 92.00,447.00
             92.00,447.00 91.00,446.00 91.00,446.00
             91.00,446.00 92.00,446.00 92.00,446.00 Z
           M 191.00,446.00
           C 191.00,446.00 191.00,447.00 191.00,447.00
             191.00,447.00 190.00,446.00 190.00,446.00
             190.00,446.00 191.00,446.00 191.00,446.00 Z
           M 90.00,447.00
           C 90.00,447.00 90.00,448.00 90.00,448.00
             90.00,448.00 89.00,447.00 89.00,447.00
             89.00,447.00 90.00,447.00 90.00,447.00 Z
           M 94.00,447.00
           C 94.00,447.00 94.00,448.00 94.00,448.00
             94.00,448.00 93.00,447.00 93.00,447.00
             93.00,447.00 94.00,447.00 94.00,447.00 Z
           M 189.00,447.00
           C 189.00,447.00 189.00,448.00 189.00,448.00
             189.00,448.00 188.00,447.00 188.00,447.00
             188.00,447.00 189.00,447.00 189.00,447.00 Z
           M 193.00,447.00
           C 193.00,447.00 193.00,448.00 193.00,448.00
             193.00,448.00 192.00,447.00 192.00,447.00
             192.00,447.00 193.00,447.00 193.00,447.00 Z
           M 92.00,448.00
           C 92.00,448.00 92.00,449.00 92.00,449.00
             92.00,449.00 91.00,448.00 91.00,448.00
             91.00,448.00 92.00,448.00 92.00,448.00 Z
           M 96.00,448.00
           C 96.00,448.00 96.00,449.00 96.00,449.00
             96.00,449.00 95.00,448.00 95.00,448.00
             95.00,448.00 96.00,448.00 96.00,448.00 Z
           M 187.00,448.00
           C 187.00,448.00 187.00,449.00 187.00,449.00
             187.00,449.00 186.00,448.00 186.00,448.00
             186.00,448.00 187.00,448.00 187.00,448.00 Z
           M 94.00,449.00
           C 94.00,449.00 94.00,450.00 94.00,450.00
             94.00,450.00 93.00,449.00 93.00,449.00
             93.00,449.00 94.00,449.00 94.00,449.00 Z
           M 98.00,449.00
           C 98.00,449.00 98.00,450.00 98.00,450.00
             98.00,450.00 97.00,449.00 97.00,449.00
             97.00,449.00 98.00,449.00 98.00,449.00 Z
           M 186.00,449.00
           C 186.00,449.00 186.00,450.00 186.00,450.00
             186.00,450.00 185.00,449.00 185.00,449.00
             185.00,449.00 186.00,449.00 186.00,449.00 Z
           M 100.00,450.00
           C 100.00,450.00 100.00,451.00 100.00,451.00
             100.00,451.00 99.00,450.00 99.00,450.00
             99.00,450.00 100.00,450.00 100.00,450.00 Z
           M 184.00,450.00
           C 184.00,450.00 184.00,451.00 184.00,451.00
             184.00,451.00 183.00,450.00 183.00,450.00
             183.00,450.00 184.00,450.00 184.00,450.00 Z
           M 102.00,451.00
           C 102.00,451.00 102.00,452.00 102.00,452.00
             102.00,452.00 101.00,451.00 101.00,451.00
             101.00,451.00 102.00,451.00 102.00,451.00 Z
           M 182.00,451.00
           C 182.00,451.00 182.00,452.00 182.00,452.00
             182.00,452.00 181.00,451.00 181.00,451.00
             181.00,451.00 182.00,451.00 182.00,451.00 Z
           M 104.00,452.00
           C 104.00,452.00 104.00,453.00 104.00,453.00
             104.00,453.00 103.00,452.00 103.00,452.00
             103.00,452.00 104.00,452.00 104.00,452.00 Z
           M 180.00,452.00
           C 180.00,452.00 180.00,453.00 180.00,453.00
             180.00,453.00 179.00,452.00 179.00,452.00
             179.00,452.00 180.00,452.00 180.00,452.00 Z
           M 184.00,452.00
           C 184.00,452.00 184.00,453.00 184.00,453.00
             184.00,453.00 183.00,452.00 183.00,452.00
             183.00,452.00 184.00,452.00 184.00,452.00 Z
           M 105.00,453.00
           C 105.00,453.00 105.00,454.00 105.00,454.00
             105.00,454.00 104.00,453.00 104.00,453.00
             104.00,453.00 105.00,453.00 105.00,453.00 Z
           M 178.00,453.00
           C 178.00,453.00 178.00,454.00 178.00,454.00
             178.00,454.00 177.00,453.00 177.00,453.00
             177.00,453.00 178.00,453.00 178.00,453.00 Z
           M 182.00,453.00
           C 182.00,453.00 182.00,454.00 182.00,454.00
             182.00,454.00 181.00,453.00 181.00,453.00
             181.00,453.00 182.00,453.00 182.00,453.00 Z
           M 107.00,454.00
           C 107.00,454.00 107.00,455.00 107.00,455.00
             107.00,455.00 106.00,454.00 106.00,454.00
             106.00,454.00 107.00,454.00 107.00,454.00 Z
           M 176.00,454.00
           C 176.00,454.00 176.00,455.00 176.00,455.00
             176.00,455.00 175.00,454.00 175.00,454.00
             175.00,454.00 176.00,454.00 176.00,454.00 Z
           M 109.00,455.00
           C 109.00,455.00 109.00,456.00 109.00,456.00
             109.00,456.00 108.00,455.00 108.00,455.00
             108.00,455.00 109.00,455.00 109.00,455.00 Z
           M 175.00,455.00
           C 175.00,455.00 175.00,456.00 175.00,456.00
             175.00,456.00 174.00,455.00 174.00,455.00
             174.00,455.00 175.00,455.00 175.00,455.00 Z
           M 111.00,456.00
           C 111.00,456.00 111.00,457.00 111.00,457.00
             111.00,457.00 110.00,456.00 110.00,456.00
             110.00,456.00 111.00,456.00 111.00,456.00 Z
           M 173.00,456.00
           C 173.00,456.00 173.00,457.00 173.00,457.00
             173.00,457.00 172.00,456.00 172.00,456.00
             172.00,456.00 173.00,456.00 173.00,456.00 Z
           M 109.00,457.00
           C 109.00,457.00 109.00,458.00 109.00,458.00
             109.00,458.00 108.00,457.00 108.00,457.00
             108.00,457.00 109.00,457.00 109.00,457.00 Z
           M 113.00,457.00
           C 113.00,457.00 113.00,458.00 113.00,458.00
             113.00,458.00 112.00,457.00 112.00,457.00
             112.00,457.00 113.00,457.00 113.00,457.00 Z
           M 171.00,457.00
           C 171.00,457.00 171.00,458.00 171.00,458.00
             171.00,458.00 170.00,457.00 170.00,457.00
             170.00,457.00 171.00,457.00 171.00,457.00 Z
           M 111.00,458.00
           C 111.00,458.00 111.00,459.00 111.00,459.00
             111.00,459.00 110.00,458.00 110.00,458.00
             110.00,458.00 111.00,458.00 111.00,458.00 Z
           M 115.00,458.00
           C 115.00,458.00 115.00,459.00 115.00,459.00
             115.00,459.00 114.00,458.00 114.00,458.00
             114.00,458.00 115.00,458.00 115.00,458.00 Z
           M 169.00,458.00
           C 169.00,458.00 169.00,459.00 169.00,459.00
             169.00,459.00 168.00,458.00 168.00,458.00
             168.00,458.00 169.00,458.00 169.00,458.00 Z
           M 113.00,459.00
           C 113.00,459.00 113.00,460.00 113.00,460.00
             113.00,460.00 112.00,459.00 112.00,459.00
             112.00,459.00 113.00,459.00 113.00,459.00 Z
           M 117.00,459.00
           C 117.00,459.00 117.00,460.00 117.00,460.00
             117.00,460.00 116.00,459.00 116.00,459.00
             116.00,459.00 117.00,459.00 117.00,459.00 Z
           M 167.00,459.00
           C 167.00,459.00 167.00,460.00 167.00,460.00
             167.00,460.00 166.00,459.00 166.00,459.00
             166.00,459.00 167.00,459.00 167.00,459.00 Z
           M 171.00,459.00
           C 171.00,459.00 171.00,460.00 171.00,460.00
             171.00,460.00 170.00,459.00 170.00,459.00
             170.00,459.00 171.00,459.00 171.00,459.00 Z
           M 115.00,460.00
           C 115.00,460.00 115.00,461.00 115.00,461.00
             115.00,461.00 114.00,460.00 114.00,460.00
             114.00,460.00 115.00,460.00 115.00,460.00 Z
           M 119.00,460.00
           C 119.00,460.00 119.00,461.00 119.00,461.00
             119.00,461.00 118.00,460.00 118.00,460.00
             118.00,460.00 119.00,460.00 119.00,460.00 Z
           M 165.00,460.00
           C 165.00,460.00 165.00,461.00 165.00,461.00
             165.00,461.00 164.00,460.00 164.00,460.00
             164.00,460.00 165.00,460.00 165.00,460.00 Z
           M 169.00,460.00
           C 169.00,460.00 169.00,461.00 169.00,461.00
             169.00,461.00 168.00,460.00 168.00,460.00
             168.00,460.00 169.00,460.00 169.00,460.00 Z
           M 121.00,461.00
           C 121.00,461.00 121.00,462.00 121.00,462.00
             121.00,462.00 120.00,461.00 120.00,461.00
             120.00,461.00 121.00,461.00 121.00,461.00 Z
           M 164.00,461.00
           C 164.00,461.00 164.00,462.00 164.00,462.00
             164.00,462.00 163.00,461.00 163.00,461.00
             163.00,461.00 164.00,461.00 164.00,461.00 Z
           M 162.00,462.00
           C 162.00,462.00 162.00,463.00 162.00,463.00
             162.00,463.00 161.00,462.00 161.00,462.00
             161.00,462.00 162.00,462.00 162.00,462.00 Z
           M 124.00,463.00
           C 124.00,463.00 124.00,464.00 124.00,464.00
             124.00,464.00 123.00,463.00 123.00,463.00
             123.00,463.00 124.00,463.00 124.00,463.00 Z
           M 160.00,463.00
           C 160.00,463.00 160.00,464.00 160.00,464.00
             160.00,464.00 159.00,463.00 159.00,463.00
             159.00,463.00 160.00,463.00 160.00,463.00 Z
           M 126.00,464.00
           C 126.00,464.00 126.00,465.00 126.00,465.00
             126.00,465.00 125.00,464.00 125.00,464.00
             125.00,464.00 126.00,464.00 126.00,464.00 Z
           M 158.00,464.00
           C 158.00,464.00 158.00,465.00 158.00,465.00
             158.00,465.00 157.00,464.00 157.00,464.00
             157.00,464.00 158.00,464.00 158.00,464.00 Z
           M 128.00,465.00
           C 128.00,465.00 128.00,466.00 128.00,466.00
             128.00,466.00 127.00,465.00 127.00,465.00
             127.00,465.00 128.00,465.00 128.00,465.00 Z
           M 156.00,465.00
           C 156.00,465.00 156.00,466.00 156.00,466.00
             156.00,466.00 155.00,465.00 155.00,465.00
             155.00,465.00 156.00,465.00 156.00,465.00 Z
           M 160.00,465.00
           C 160.00,465.00 160.00,466.00 160.00,466.00
             160.00,466.00 159.00,465.00 159.00,465.00
             159.00,465.00 160.00,465.00 160.00,465.00 Z
           M 130.00,466.00
           C 130.00,466.00 130.00,467.00 130.00,467.00
             130.00,467.00 129.00,466.00 129.00,466.00
             129.00,466.00 130.00,466.00 130.00,466.00 Z
           M 154.00,466.00
           C 154.00,466.00 154.00,467.00 154.00,467.00
             154.00,467.00 153.00,466.00 153.00,466.00
             153.00,466.00 154.00,466.00 154.00,466.00 Z
           M 158.00,466.00
           C 158.00,466.00 158.00,467.00 158.00,467.00
             158.00,467.00 157.00,466.00 157.00,466.00
             157.00,466.00 158.00,466.00 158.00,466.00 Z
           M 128.00,467.00
           C 128.00,467.00 128.00,468.00 128.00,468.00
             128.00,468.00 127.00,467.00 127.00,467.00
             127.00,467.00 128.00,467.00 128.00,467.00 Z
           M 132.00,467.00
           C 132.00,467.00 132.00,468.00 132.00,468.00
             132.00,468.00 131.00,467.00 131.00,467.00
             131.00,467.00 132.00,467.00 132.00,467.00 Z
           M 130.00,468.00
           C 130.00,468.00 130.00,469.00 130.00,469.00
             130.00,469.00 129.00,468.00 129.00,468.00
             129.00,468.00 130.00,468.00 130.00,468.00 Z
           M 134.00,468.00
           C 134.00,468.00 134.00,469.00 134.00,469.00
             134.00,469.00 133.00,468.00 133.00,468.00
             133.00,468.00 134.00,468.00 134.00,468.00 Z
           M 151.00,468.00
           C 151.00,468.00 151.00,469.00 151.00,469.00
             151.00,469.00 150.00,468.00 150.00,468.00
             150.00,468.00 151.00,468.00 151.00,468.00 Z
           M 132.00,469.00
           C 132.00,469.00 132.00,470.00 132.00,470.00
             132.00,470.00 131.00,469.00 131.00,469.00
             131.00,469.00 132.00,469.00 132.00,469.00 Z
           M 136.00,469.00
           C 136.00,469.00 136.00,470.00 136.00,470.00
             136.00,470.00 135.00,469.00 135.00,469.00
             135.00,469.00 136.00,469.00 136.00,469.00 Z
           M 149.00,469.00
           C 149.00,469.00 149.00,470.00 149.00,470.00
             149.00,470.00 148.00,469.00 148.00,469.00
             148.00,469.00 149.00,469.00 149.00,469.00 Z
           M 138.00,470.00
           C 138.00,470.00 138.00,471.00 138.00,471.00
             138.00,471.00 137.00,470.00 137.00,470.00
             137.00,470.00 138.00,470.00 138.00,470.00 Z
           M 147.00,470.00
           C 147.00,470.00 147.00,471.00 147.00,471.00
             147.00,471.00 146.00,470.00 146.00,470.00
             146.00,470.00 147.00,470.00 147.00,470.00 Z
           M 145.00,471.00
           C 145.00,471.00 145.00,472.00 145.00,472.00
             145.00,472.00 144.00,471.00 144.00,471.00
             144.00,471.00 145.00,471.00 145.00,471.00 Z
           M 149.00,471.00
           C 149.00,471.00 149.00,472.00 149.00,472.00
             149.00,472.00 148.00,471.00 148.00,471.00
             148.00,471.00 149.00,471.00 149.00,471.00 Z
           M 141.00,472.00
           C 141.00,472.00 141.00,473.00 141.00,473.00
             141.00,473.00 140.00,472.00 140.00,472.00
             140.00,472.00 141.00,472.00 141.00,472.00 Z
           M 147.00,472.00
           C 147.00,472.00 147.00,473.00 147.00,473.00
             147.00,473.00 146.00,472.00 146.00,472.00
             146.00,472.00 147.00,472.00 147.00,472.00 Z" />
</svg>
